<svg width="527" height="364" fill="none" xmlns="http://www.w3.org/2000/svg"><g filter="url(#a)"><rect y=".345" width="177.31" height="283.558" rx="13.454" transform="matrix(.86603 .5 -.86603 .5 309.873 57.172)" fill="url(#b)" stroke="url(#c)" stroke-width=".69"/><g opacity=".9" stroke-width=".5"><rect opacity=".75" y="-.25" width="19.29" height="19.29" rx="9.645" transform="matrix(-.86603 -.5 .86603 -.5 218.562 273.496)" stroke="url(#d)"/><rect opacity=".7" y="-.25" width="19.29" height="19.29" rx="9.645" transform="matrix(-.86603 -.5 .86603 -.5 208.216 267.522)" stroke="url(#e)"/></g><g filter="url(#f)"><path d="m113.587 191.924-6.324 2.194-1.003-.579 2.846-2.877-4.983 1.643-1.004-.579 3.8-3.651.896.517-3.24 2.881 5.227-1.734.903.521-3.004 3.018 4.99-1.871.896.517Zm.503 4.869-2.137-1.234-1.484.41-.875-.505 6.848-1.801.939.543-3.126 3.949-.875-.505.71-.857Zm.401-.497 1.527-1.85-3.204.881 1.677.969Zm5.232 2.06-.33 2.765-.997-.575.344-2.509-2.344 1.354-.817-.472 5.061-2.922.818.471-2.316 1.338 4.323-.178.99.571-4.732.157Zm8.07 6.059c-.249.143-.54.242-.875.298-.33.052-.681.045-1.054-.021a3.341 3.341 0 0 1-1.09-.406c-.344-.198-.592-.411-.745-.637-.148-.229-.194-.454-.137-.675.058-.221.218-.421.481-.6l.875.505c-.196.141-.292.303-.287.488.009.188.153.362.43.522.249.143.507.215.774.215.273.003.514-.056.724-.178.182-.105.28-.219.294-.344a.52.52 0 0 0-.093-.376 4.894 4.894 0 0 0-.38-.485 3.945 3.945 0 0 1-.473-.62.692.692 0 0 1-.064-.543c.052-.19.234-.375.544-.554.273-.158.579-.257.918-.298.34-.042.688-.023 1.047.057.363.078.707.21 1.032.398.517.298.801.606.854.923.057.32-.094.608-.452.865l-.882-.509c.158-.13.229-.276.215-.439-.005-.163-.134-.317-.387-.463a1.57 1.57 0 0 0-.731-.216 1.26 1.26 0 0 0-.71.17c-.172.099-.268.21-.287.331a.547.547 0 0 0 .093.36c.086.122.213.28.38.476.22.243.378.453.473.63.106.176.13.361.072.554-.052.196-.239.387-.559.572Zm6.031-.807-3.005 1.734c-.449.26-.685.509-.709.75-.019.242.15.467.509.674.353.205.738.3 1.154.286.421-.011.856-.146 1.305-.406l3.004-1.734.818.472-3.005 1.734c-.693.4-1.398.6-2.115.6a3.848 3.848 0 0 1-1.95-.513c-.583-.337-.875-.709-.875-1.118.005-.411.354-.816 1.047-1.217l3.004-1.734.818.472Zm3.777 8.026-.817-.472 1.276-3.576-3.735 2.156-.818-.472 5.055-2.918.818.472-1.291 3.585 3.75-2.165.817.472-5.055 2.918Zm5.822 2.095-2.136-1.234-1.484.41-.875-.505 6.847-1.801.939.542-3.126 3.949-.875-.505.71-.856Zm.402-.497 1.527-1.851-3.205.882 1.678.969Zm3.747 4.159.76-1.896-.581-.336-2.022 1.168-.817-.472 5.062-2.923 1.785 1.031c.579.334.875.668.889 1.002.019.336-.203.639-.666.906a2.785 2.785 0 0 1-1.313.369 3.44 3.44 0 0 1-1.448-.273l-.731 1.953-.918-.529Zm.76-2.567.904.522c.659.38 1.281.403 1.864.066.277-.16.411-.331.401-.513 0-.183-.17-.372-.509-.568l-.903-.521-1.757 1.014Zm7.461 1.468-5.061 2.923-.818-.472 5.062-2.923.817.472Z" fill="#fff"/></g><g filter="url(#g)"><path d="M92.682 196.415c-.678.391-1.094.76-1.25 1.107-.154.347.043.68.592.997.55.317 1.126.431 1.727.342.605-.088 1.247-.327 1.924-.718.67-.386 1.08-.754 1.23-1.104.156-.347-.041-.679-.59-.997a2.6 2.6 0 0 0-1.727-.341c-.598.087-1.233.325-1.906.714Zm2.455 1.418c-.346.2-.663.353-.95.458a2.339 2.339 0 0 1-.836.159c-.28 0-.55-.076-.813-.228-.259-.149-.388-.304-.388-.465 0-.161.09-.323.269-.487.187-.163.454-.345.8-.545.343-.198.654-.349.932-.455a2.36 2.36 0 0 1 .837-.152c.279 0 .548.075.806.224.263.152.395.308.395.469.004.159-.086.319-.269.48-.18.163-.44.344-.783.542Zm4.549 1.522c.219-.164.326-.325.322-.483.004-.159-.115-.308-.358-.449-.339-.195-.727-.268-1.165-.217-.434.053-.936.244-1.506.573l-.215.131c.299-.104.625-.134.98-.09.358.041.683.146.974.314.418.241.62.502.603.783-.012.283-.243.554-.693.814a2.85 2.85 0 0 1-1.858.342 2.768 2.768 0 0 1-.974-.349c-.601-.347-.827-.695-.675-1.045.155-.347.558-.708 1.207-1.083.749-.433 1.43-.688 2.043-.766a2.733 2.733 0 0 1 1.751.355c.402.233.597.476.585.732-.008.257-.175.503-.501.738l-.52-.3Zm-3.418-.09c-.29.168-.452.358-.484.569-.024.212.133.415.472.611.279.161.584.242.914.245.335 0 .651-.087.95-.259.323-.186.484-.376.484-.569.004-.196-.141-.379-.436-.549a2.117 2.117 0 0 0-1.26-.252 1.57 1.57 0 0 0-.64.204Zm9.154.469-8.287 2.895-.526-.304 8.281-2.898.532.307Zm-4.935 3.167c1.131.129 2.123.182 2.976.159.856-.025 1.477-.149 1.864-.372.239-.138.368-.285.388-.439.028-.154-.093-.309-.364-.465a1.572 1.572 0 0 0-.902-.211 2.395 2.395 0 0 0-.968.283l-.538-.31a3.188 3.188 0 0 1 1.517-.373c.518.005.984.127 1.399.366.394.227.601.469.621.724.02.255-.163.495-.55.718-.318.184-.747.311-1.284.383a10.44 10.44 0 0 1-1.685.082 14.228 14.228 0 0 1-1.661-.138l2.139 1.235-.448.259-2.898-1.673.394-.228Zm5.195 1.019c-.677.391-1.094.76-1.249 1.108-.155.347.042.679.591.997a2.6 2.6 0 0 0 1.727.341c.606-.087 1.247-.326 1.924-.717.669-.387 1.08-.755 1.231-1.104.155-.348-.042-.68-.592-.997a2.598 2.598 0 0 0-1.726-.342c-.598.088-1.233.326-1.906.714Zm2.455 1.418c-.346.2-.663.353-.95.459a2.333 2.333 0 0 1-.836.159c-.279 0-.55-.076-.813-.228-.259-.15-.388-.305-.388-.466 0-.161.09-.323.269-.486.187-.163.454-.345.8-.545.343-.198.654-.35.932-.456.283-.103.562-.154.837-.151.279 0 .548.074.807.224.262.152.394.308.394.469.004.159-.086.319-.269.48-.179.163-.44.343-.783.541Zm-.59 1.64c1.132.128 2.123.181 2.976.158.856-.025 1.478-.149 1.864-.372.239-.138.368-.284.388-.438.028-.154-.093-.31-.364-.466a1.572 1.572 0 0 0-.902-.211 2.395 2.395 0 0 0-.968.283l-.538-.31a3.2 3.2 0 0 1 1.518-.373 2.8 2.8 0 0 1 1.398.366c.394.228.601.469.621.724.02.256-.163.495-.549.718-.319.184-.747.312-1.285.383-.53.071-1.092.099-1.685.083a14.228 14.228 0 0 1-1.661-.138l2.139 1.235-.448.258-2.898-1.673.394-.227Zm3.874 1.602.454-.263 4.984-.379.585.338-2.802 1.618.621.359-.472.272-.621-.359-.968.559-.55-.317.968-.559-2.199-1.269Zm4.846-.218-3.8.276 1.661.959 2.139-1.235Z" fill="#fff" fill-opacity=".7" shape-rendering="crispEdges"/></g><rect y=".5" width="23.86" height="18.042" rx="1.5" transform="matrix(.86603 .5 -.86603 .5 211.039 190.822)" stroke="#fff"/><path d="M199.403 210.599c-1.198-.16-3.662-.836-3.933-2.266m2.307 4.831c-1.858-.275-5.811-1.438-6.759-3.895m5.541 6.297c-2.475-.392-7.845-2.037-9.525-5.488m7.792 7.832c-3.015-.411-9.608-2.353-11.86-6.834" stroke="#fff" stroke-width="1.38" stroke-linecap="round" stroke-linejoin="round" style="mix-blend-mode:overlay"/></g><defs><linearGradient id="b" x1="0" y1="0" x2="178" y2="284.248" gradientUnits="userSpaceOnUse"><stop stop-color="#fff" stop-opacity=".4"/><stop offset="1" stop-color="#fff" stop-opacity=".1"/></linearGradient><linearGradient id="c" x1="0" y1="9.5" x2="167.5" y2="284" gradientUnits="userSpaceOnUse"><stop stop-color="#fff"/><stop offset="1" stop-color="#fff" stop-opacity=".1"/></linearGradient><linearGradient id="d" x1="9.895" y1="0" x2="9.895" y2="19.79" gradientUnits="userSpaceOnUse"><stop stop-color="#fff"/><stop offset=".479" stop-opacity=".5"/><stop offset=".938" stop-color="#fff"/></linearGradient><linearGradient id="e" x1="9.895" y1="0" x2="9.895" y2="19.79" gradientUnits="userSpaceOnUse"><stop stop-color="#fff"/><stop offset=".479" stop-opacity=".5"/><stop offset=".938" stop-color="#fff"/></linearGradient><filter id="a" x=".408" y=".041" width="526.318" height="363.041" filterUnits="userSpaceOnUse" color-interpolation-filters="sRGB"><feFlood flood-opacity="0" result="BackgroundImageFix"/><feColorMatrix in="SourceAlpha" values="0 0 0 0 0 0 0 0 0 0 0 0 0 0 0 0 0 0 127 0" result="hardAlpha"/><feOffset dy="9"/><feGaussianBlur stdDeviation="35"/><feComposite in2="hardAlpha" operator="out"/><feColorMatrix values="0 0 0 0 0 0 0 0 0 0 0 0 0 0 0 0 0 0 0.25 0"/><feBlend in2="BackgroundImageFix" result="effect1_dropShadow_310_709"/><feBlend in="SourceGraphic" in2="effect1_dropShadow_310_709" result="shape"/></filter><filter id="f" x="100.807" y="188.037" width="56.051" height="33.206" filterUnits="userSpaceOnUse" color-interpolation-filters="sRGB"><feFlood flood-opacity="0" result="BackgroundImageFix"/><feColorMatrix in="SourceAlpha" values="0 0 0 0 0 0 0 0 0 0 0 0 0 0 0 0 0 0 127 0" result="hardAlpha"/><feOffset dy="1"/><feGaussianBlur stdDeviation=".5"/><feComposite in2="hardAlpha" operator="out"/><feColorMatrix values="0 0 0 0 0 0 0 0 0 0 0 0 0 0 0 0 0 0 0.15 0"/><feBlend in2="BackgroundImageFix" result="effect1_dropShadow_310_709"/><feBlend in="SourceGraphic" in2="effect1_dropShadow_310_709" result="shape"/></filter><filter id="g" x="88.527" y="194.397" width="31.925" height="19.277" filterUnits="userSpaceOnUse" color-interpolation-filters="sRGB"><feFlood flood-opacity="0" result="BackgroundImageFix"/><feColorMatrix in="SourceAlpha" values="0 0 0 0 0 0 0 0 0 0 0 0 0 0 0 0 0 0 127 0" result="hardAlpha"/><feOffset dy="1"/><feGaussianBlur stdDeviation=".5"/><feComposite in2="hardAlpha" operator="out"/><feColorMatrix values="0 0 0 0 0 0 0 0 0 0 0 0 0 0 0 0 0 0 0.15 0"/><feBlend in2="BackgroundImageFix" result="effect1_dropShadow_310_709"/><feBlend in="SourceGraphic" in2="effect1_dropShadow_310_709" result="shape"/></filter></defs></svg>