<?xml version="1.0" encoding="UTF-8" standalone="no"?>
<svg
   xmlns:dc="http://purl.org/dc/elements/1.1/"
   xmlns:cc="http://creativecommons.org/ns#"
   xmlns:rdf="http://www.w3.org/1999/02/22-rdf-syntax-ns#"
   xmlns:svg="http://www.w3.org/2000/svg"
   xmlns="http://www.w3.org/2000/svg"
   xmlns:sodipodi="http://sodipodi.sourceforge.net/DTD/sodipodi-0.dtd"
   xmlns:inkscape="http://www.inkscape.org/namespaces/inkscape"
   width="395.59607"
   height="230"
   fill="none"
   version="1.1"
   id="svg1037"
   sodipodi:docname="card-robot-2.svg"
   inkscape:version="1.0.2-2 (e86c870879, 2021-01-15)">
  <metadata
     id="metadata1041">
    <rdf:RDF>
      <cc:Work
         rdf:about="">
        <dc:format>image/svg+xml</dc:format>
        <dc:type
           rdf:resource="http://purl.org/dc/dcmitype/StillImage" />
        <dc:title></dc:title>
      </cc:Work>
    </rdf:RDF>
  </metadata>
  <sodipodi:namedview
     pagecolor="#ffffff"
     bordercolor="#666666"
     borderopacity="1"
     objecttolerance="10"
     gridtolerance="10"
     guidetolerance="10"
     inkscape:pageopacity="0"
     inkscape:pageshadow="2"
     inkscape:window-width="1343"
     inkscape:window-height="1030"
     id="namedview1039"
     showgrid="false"
     fit-margin-top="100"
     fit-margin-left="0"
     fit-margin-right="0"
     fit-margin-bottom="100"
     inkscape:zoom="1.1002747"
     inkscape:cx="245.29917"
     inkscape:cy="150.53739"
     inkscape:window-x="192"
     inkscape:window-y="0"
     inkscape:window-maximized="0"
     inkscape:current-layer="svg1037" />
  <g
     filter="url(#a)"
     id="g958"
     transform="matrix(1.0005283,0,0,1,-64.755282,-57.117155)">
    <rect
       y="0.345"
       width="177.31"
       height="283.55801"
       rx="13.454"
       transform="matrix(0.86603,0.5,-0.86603,0.5,309.873,57.172)"
       fill="url(#b)"
       stroke="url(#c)"
       stroke-width="0.69"
       id="rect938"
       x="0"
       style="fill:url(#b);stroke:url(#c)" />
    <g
       opacity="0.9"
       stroke-width="0.5"
       id="g944">
      <rect
         opacity="0.75"
         y="-0.25"
         width="19.290001"
         height="19.290001"
         rx="9.6450005"
         transform="matrix(-0.86603,-0.5,0.86603,-0.5,218.562,273.496)"
         stroke="url(#d)"
         id="rect940"
         x="0"
         style="stroke:url(#d)" />
      <rect
         opacity="0.7"
         y="-0.25"
         width="19.290001"
         height="19.290001"
         rx="9.6450005"
         transform="matrix(-0.86603,-0.5,0.86603,-0.5,208.216,267.522)"
         stroke="url(#e)"
         id="rect942"
         x="0"
         style="stroke:url(#e)" />
    </g>
    <g
       filter="url(#f)"
       id="g948">
      <path
         d="m 113.587,191.924 -6.324,2.194 -1.003,-0.579 2.846,-2.877 -4.983,1.643 -1.004,-0.579 3.8,-3.651 0.896,0.517 -3.24,2.881 5.227,-1.734 0.903,0.521 -3.004,3.018 4.99,-1.871 z m 0.503,4.869 -2.137,-1.234 -1.484,0.41 -0.875,-0.505 6.848,-1.801 0.939,0.543 -3.126,3.949 -0.875,-0.505 z m 0.401,-0.497 1.527,-1.85 -3.204,0.881 z m 5.232,2.06 -0.33,2.765 -0.997,-0.575 0.344,-2.509 -2.344,1.354 -0.817,-0.472 5.061,-2.922 0.818,0.471 -2.316,1.338 4.323,-0.178 0.99,0.571 z m 8.07,6.059 c -0.249,0.143 -0.54,0.242 -0.875,0.298 -0.33,0.052 -0.681,0.045 -1.054,-0.021 a 3.341,3.341 0 0 1 -1.09,-0.406 c -0.344,-0.198 -0.592,-0.411 -0.745,-0.637 -0.148,-0.229 -0.194,-0.454 -0.137,-0.675 0.058,-0.221 0.218,-0.421 0.481,-0.6 l 0.875,0.505 c -0.196,0.141 -0.292,0.303 -0.287,0.488 0.009,0.188 0.153,0.362 0.43,0.522 0.249,0.143 0.507,0.215 0.774,0.215 0.273,0.003 0.514,-0.056 0.724,-0.178 0.182,-0.105 0.28,-0.219 0.294,-0.344 a 0.52,0.52 0 0 0 -0.093,-0.376 4.894,4.894 0 0 0 -0.38,-0.485 3.945,3.945 0 0 1 -0.473,-0.62 0.692,0.692 0 0 1 -0.064,-0.543 c 0.052,-0.19 0.234,-0.375 0.544,-0.554 0.273,-0.158 0.579,-0.257 0.918,-0.298 0.34,-0.042 0.688,-0.023 1.047,0.057 0.363,0.078 0.707,0.21 1.032,0.398 0.517,0.298 0.801,0.606 0.854,0.923 0.057,0.32 -0.094,0.608 -0.452,0.865 l -0.882,-0.509 c 0.158,-0.13 0.229,-0.276 0.215,-0.439 -0.005,-0.163 -0.134,-0.317 -0.387,-0.463 a 1.57,1.57 0 0 0 -0.731,-0.216 1.26,1.26 0 0 0 -0.71,0.17 c -0.172,0.099 -0.268,0.21 -0.287,0.331 a 0.547,0.547 0 0 0 0.093,0.36 c 0.086,0.122 0.213,0.28 0.38,0.476 0.22,0.243 0.378,0.453 0.473,0.63 0.106,0.176 0.13,0.361 0.072,0.554 -0.052,0.196 -0.239,0.387 -0.559,0.572 z m 6.031,-0.807 -3.005,1.734 c -0.449,0.26 -0.685,0.509 -0.709,0.75 -0.019,0.242 0.15,0.467 0.509,0.674 0.353,0.205 0.738,0.3 1.154,0.286 0.421,-0.011 0.856,-0.146 1.305,-0.406 l 3.004,-1.734 0.818,0.472 -3.005,1.734 c -0.693,0.4 -1.398,0.6 -2.115,0.6 a 3.848,3.848 0 0 1 -1.95,-0.513 c -0.583,-0.337 -0.875,-0.709 -0.875,-1.118 0.005,-0.411 0.354,-0.816 1.047,-1.217 l 3.004,-1.734 z m 3.777,8.026 -0.817,-0.472 1.276,-3.576 -3.735,2.156 -0.818,-0.472 5.055,-2.918 0.818,0.472 -1.291,3.585 3.75,-2.165 0.817,0.472 z m 5.822,2.095 -2.136,-1.234 -1.484,0.41 -0.875,-0.505 6.847,-1.801 0.939,0.542 -3.126,3.949 -0.875,-0.505 z m 0.402,-0.497 1.527,-1.851 -3.205,0.882 z m 3.747,4.159 0.76,-1.896 -0.581,-0.336 -2.022,1.168 -0.817,-0.472 5.062,-2.923 1.785,1.031 c 0.579,0.334 0.875,0.668 0.889,1.002 0.019,0.336 -0.203,0.639 -0.666,0.906 a 2.785,2.785 0 0 1 -1.313,0.369 3.44,3.44 0 0 1 -1.448,-0.273 l -0.731,1.953 z m 0.76,-2.567 0.904,0.522 c 0.659,0.38 1.281,0.403 1.864,0.066 0.277,-0.16 0.411,-0.331 0.401,-0.513 0,-0.183 -0.17,-0.372 -0.509,-0.568 l -0.903,-0.521 z m 7.461,1.468 -5.061,2.923 -0.818,-0.472 5.062,-2.923 z"
         fill="#ffffff"
         id="path946" />
    </g>
    <g
       filter="url(#g)"
       id="g952">
      <path
         d="m 92.682,196.415 c -0.678,0.391 -1.094,0.76 -1.25,1.107 -0.154,0.347 0.043,0.68 0.592,0.997 0.55,0.317 1.126,0.431 1.727,0.342 0.605,-0.088 1.247,-0.327 1.924,-0.718 0.67,-0.386 1.08,-0.754 1.23,-1.104 0.156,-0.347 -0.041,-0.679 -0.59,-0.997 a 2.6,2.6 0 0 0 -1.727,-0.341 c -0.598,0.087 -1.233,0.325 -1.906,0.714 z m 2.455,1.418 c -0.346,0.2 -0.663,0.353 -0.95,0.458 a 2.339,2.339 0 0 1 -0.836,0.159 c -0.28,0 -0.55,-0.076 -0.813,-0.228 -0.259,-0.149 -0.388,-0.304 -0.388,-0.465 0,-0.161 0.09,-0.323 0.269,-0.487 0.187,-0.163 0.454,-0.345 0.8,-0.545 0.343,-0.198 0.654,-0.349 0.932,-0.455 a 2.36,2.36 0 0 1 0.837,-0.152 c 0.279,0 0.548,0.075 0.806,0.224 0.263,0.152 0.395,0.308 0.395,0.469 0.004,0.159 -0.086,0.319 -0.269,0.48 -0.18,0.163 -0.44,0.344 -0.783,0.542 z m 4.549,1.522 c 0.219,-0.164 0.326,-0.325 0.322,-0.483 0.004,-0.159 -0.115,-0.308 -0.358,-0.449 -0.339,-0.195 -0.727,-0.268 -1.165,-0.217 -0.434,0.053 -0.936,0.244 -1.506,0.573 l -0.215,0.131 c 0.299,-0.104 0.625,-0.134 0.98,-0.09 0.358,0.041 0.683,0.146 0.974,0.314 0.418,0.241 0.62,0.502 0.603,0.783 -0.012,0.283 -0.243,0.554 -0.693,0.814 a 2.85,2.85 0 0 1 -1.858,0.342 2.768,2.768 0 0 1 -0.974,-0.349 c -0.601,-0.347 -0.827,-0.695 -0.675,-1.045 0.155,-0.347 0.558,-0.708 1.207,-1.083 0.749,-0.433 1.43,-0.688 2.043,-0.766 a 2.733,2.733 0 0 1 1.751,0.355 c 0.402,0.233 0.597,0.476 0.585,0.732 -0.008,0.257 -0.175,0.503 -0.501,0.738 z m -3.418,-0.09 c -0.29,0.168 -0.452,0.358 -0.484,0.569 -0.024,0.212 0.133,0.415 0.472,0.611 0.279,0.161 0.584,0.242 0.914,0.245 0.335,0 0.651,-0.087 0.95,-0.259 0.323,-0.186 0.484,-0.376 0.484,-0.569 0.004,-0.196 -0.141,-0.379 -0.436,-0.549 a 2.117,2.117 0 0 0 -1.26,-0.252 1.57,1.57 0 0 0 -0.64,0.204 z m 9.154,0.469 -8.287,2.895 -0.526,-0.304 8.281,-2.898 z m -4.935,3.167 c 1.131,0.129 2.123,0.182 2.976,0.159 0.856,-0.025 1.477,-0.149 1.864,-0.372 0.239,-0.138 0.368,-0.285 0.388,-0.439 0.028,-0.154 -0.093,-0.309 -0.364,-0.465 a 1.572,1.572 0 0 0 -0.902,-0.211 2.395,2.395 0 0 0 -0.968,0.283 l -0.538,-0.31 a 3.188,3.188 0 0 1 1.517,-0.373 c 0.518,0.005 0.984,0.127 1.399,0.366 0.394,0.227 0.601,0.469 0.621,0.724 0.02,0.255 -0.163,0.495 -0.55,0.718 -0.318,0.184 -0.747,0.311 -1.284,0.383 a 10.44,10.44 0 0 1 -1.685,0.082 14.228,14.228 0 0 1 -1.661,-0.138 l 2.139,1.235 -0.448,0.259 -2.898,-1.673 z m 5.195,1.019 c -0.677,0.391 -1.094,0.76 -1.249,1.108 -0.155,0.347 0.042,0.679 0.591,0.997 a 2.6,2.6 0 0 0 1.727,0.341 c 0.606,-0.087 1.247,-0.326 1.924,-0.717 0.669,-0.387 1.08,-0.755 1.231,-1.104 0.155,-0.348 -0.042,-0.68 -0.592,-0.997 a 2.598,2.598 0 0 0 -1.726,-0.342 c -0.598,0.088 -1.233,0.326 -1.906,0.714 z m 2.455,1.418 c -0.346,0.2 -0.663,0.353 -0.95,0.459 a 2.333,2.333 0 0 1 -0.836,0.159 c -0.279,0 -0.55,-0.076 -0.813,-0.228 -0.259,-0.15 -0.388,-0.305 -0.388,-0.466 0,-0.161 0.09,-0.323 0.269,-0.486 0.187,-0.163 0.454,-0.345 0.8,-0.545 0.343,-0.198 0.654,-0.35 0.932,-0.456 0.283,-0.103 0.562,-0.154 0.837,-0.151 0.279,0 0.548,0.074 0.807,0.224 0.262,0.152 0.394,0.308 0.394,0.469 0.004,0.159 -0.086,0.319 -0.269,0.48 -0.179,0.163 -0.44,0.343 -0.783,0.541 z m -0.59,1.64 c 1.132,0.128 2.123,0.181 2.976,0.158 0.856,-0.025 1.478,-0.149 1.864,-0.372 0.239,-0.138 0.368,-0.284 0.388,-0.438 0.028,-0.154 -0.093,-0.31 -0.364,-0.466 a 1.572,1.572 0 0 0 -0.902,-0.211 2.395,2.395 0 0 0 -0.968,0.283 l -0.538,-0.31 a 3.2,3.2 0 0 1 1.518,-0.373 2.8,2.8 0 0 1 1.398,0.366 c 0.394,0.228 0.601,0.469 0.621,0.724 0.02,0.256 -0.163,0.495 -0.549,0.718 -0.319,0.184 -0.747,0.312 -1.285,0.383 -0.53,0.071 -1.092,0.099 -1.685,0.083 a 14.228,14.228 0 0 1 -1.661,-0.138 l 2.139,1.235 -0.448,0.258 -2.898,-1.673 z m 3.874,1.602 0.454,-0.263 4.984,-0.379 0.585,0.338 -2.802,1.618 0.621,0.359 -0.472,0.272 -0.621,-0.359 -0.968,0.559 -0.55,-0.317 0.968,-0.559 z m 4.846,-0.218 -3.8,0.276 1.661,0.959 z"
         fill="#ffffff"
         fill-opacity="0.7"
         shape-rendering="crispEdges"
         id="path950" />
    </g>
    <rect
       y="0.5"
       width="23.860001"
       height="18.042"
       rx="1.5"
       transform="matrix(0.86603,0.5,-0.86603,0.5,211.039,190.822)"
       stroke="#ffffff"
       id="rect954"
       x="0" />
    <path
       d="m 199.403,210.599 c -1.198,-0.16 -3.662,-0.836 -3.933,-2.266 m 2.307,4.831 c -1.858,-0.275 -5.811,-1.438 -6.759,-3.895 m 5.541,6.297 c -2.475,-0.392 -7.845,-2.037 -9.525,-5.488 m 7.792,7.832 c -3.015,-0.411 -9.608,-2.353 -11.86,-6.834"
       stroke="#ffffff"
       stroke-width="1.38"
       stroke-linecap="round"
       stroke-linejoin="round"
       style="mix-blend-mode:overlay"
       id="path956" />
  </g>
  <defs
     id="defs1035">
    <linearGradient
       id="b"
       x1="0"
       y1="0"
       x2="178"
       y2="284.24799"
       gradientUnits="userSpaceOnUse">
      <stop
         stop-color="#fff"
         stop-opacity=".4"
         id="stop960" />
      <stop
         offset="1"
         stop-color="#fff"
         stop-opacity=".1"
         id="stop962" />
    </linearGradient>
    <linearGradient
       id="c"
       x1="0"
       y1="9.5"
       x2="167.5"
       y2="284"
       gradientUnits="userSpaceOnUse">
      <stop
         stop-color="#fff"
         id="stop965" />
      <stop
         offset="1"
         stop-color="#fff"
         stop-opacity=".1"
         id="stop967" />
    </linearGradient>
    <linearGradient
       id="d"
       x1="9.8950005"
       y1="0"
       x2="9.8950005"
       y2="19.790001"
       gradientUnits="userSpaceOnUse">
      <stop
         stop-color="#fff"
         id="stop970" />
      <stop
         offset=".479"
         stop-opacity=".5"
         id="stop972" />
      <stop
         offset=".938"
         stop-color="#fff"
         id="stop974" />
    </linearGradient>
    <linearGradient
       id="e"
       x1="9.8950005"
       y1="0"
       x2="9.8950005"
       y2="19.790001"
       gradientUnits="userSpaceOnUse">
      <stop
         stop-color="#fff"
         id="stop977" />
      <stop
         offset=".479"
         stop-opacity=".5"
         id="stop979" />
      <stop
         offset=".938"
         stop-color="#fff"
         id="stop981" />
    </linearGradient>
    <filter
       id="a"
       x="0.40799999"
       y="0.041000001"
       width="526.31799"
       height="363.04099"
       filterUnits="userSpaceOnUse"
       color-interpolation-filters="sRGB">
      <feFlood
         flood-opacity="0"
         result="BackgroundImageFix"
         id="feFlood984" />
      <feColorMatrix
         in="SourceAlpha"
         values="0 0 0 0 0 0 0 0 0 0 0 0 0 0 0 0 0 0 127 0"
         result="hardAlpha"
         id="feColorMatrix986" />
      <feOffset
         dy="9"
         id="feOffset988" />
      <feGaussianBlur
         stdDeviation="35"
         id="feGaussianBlur990" />
      <feComposite
         in2="hardAlpha"
         operator="out"
         id="feComposite992" />
      <feColorMatrix
         values="0 0 0 0 0 0 0 0 0 0 0 0 0 0 0 0 0 0 0.25 0"
         id="feColorMatrix994" />
      <feBlend
         in2="BackgroundImageFix"
         result="effect1_dropShadow_310_709"
         id="feBlend996"
         mode="normal" />
      <feBlend
         in="SourceGraphic"
         in2="effect1_dropShadow_310_709"
         result="shape"
         id="feBlend998"
         mode="normal" />
    </filter>
    <filter
       id="f"
       x="100.807"
       y="188.037"
       width="56.050999"
       height="33.206001"
       filterUnits="userSpaceOnUse"
       color-interpolation-filters="sRGB">
      <feFlood
         flood-opacity="0"
         result="BackgroundImageFix"
         id="feFlood1001" />
      <feColorMatrix
         in="SourceAlpha"
         values="0 0 0 0 0 0 0 0 0 0 0 0 0 0 0 0 0 0 127 0"
         result="hardAlpha"
         id="feColorMatrix1003" />
      <feOffset
         dy="1"
         id="feOffset1005" />
      <feGaussianBlur
         stdDeviation=".5"
         id="feGaussianBlur1007" />
      <feComposite
         in2="hardAlpha"
         operator="out"
         id="feComposite1009" />
      <feColorMatrix
         values="0 0 0 0 0 0 0 0 0 0 0 0 0 0 0 0 0 0 0.15 0"
         id="feColorMatrix1011" />
      <feBlend
         in2="BackgroundImageFix"
         result="effect1_dropShadow_310_709"
         id="feBlend1013"
         mode="normal" />
      <feBlend
         in="SourceGraphic"
         in2="effect1_dropShadow_310_709"
         result="shape"
         id="feBlend1015"
         mode="normal" />
    </filter>
    <filter
       id="g"
       x="88.527"
       y="194.397"
       width="31.924999"
       height="19.277"
       filterUnits="userSpaceOnUse"
       color-interpolation-filters="sRGB">
      <feFlood
         flood-opacity="0"
         result="BackgroundImageFix"
         id="feFlood1018" />
      <feColorMatrix
         in="SourceAlpha"
         values="0 0 0 0 0 0 0 0 0 0 0 0 0 0 0 0 0 0 127 0"
         result="hardAlpha"
         id="feColorMatrix1020" />
      <feOffset
         dy="1"
         id="feOffset1022" />
      <feGaussianBlur
         stdDeviation=".5"
         id="feGaussianBlur1024" />
      <feComposite
         in2="hardAlpha"
         operator="out"
         id="feComposite1026" />
      <feColorMatrix
         values="0 0 0 0 0 0 0 0 0 0 0 0 0 0 0 0 0 0 0.15 0"
         id="feColorMatrix1028" />
      <feBlend
         in2="BackgroundImageFix"
         result="effect1_dropShadow_310_709"
         id="feBlend1030"
         mode="normal" />
      <feBlend
         in="SourceGraphic"
         in2="effect1_dropShadow_310_709"
         result="shape"
         id="feBlend1032"
         mode="normal" />
    </filter>
  </defs>
</svg>
