<svg width="467" height="304" fill="none" xmlns="http://www.w3.org/2000/svg"><g filter="url(#a)"><g filter="url(#b)"><rect width="178" height="284.248" rx="13.799" transform="matrix(.86603 .5 -.86603 .5 275.166 14)" fill="url(#c)"/><rect y=".345" width="177.31" height="283.558" rx="13.454" transform="matrix(.86603 .5 -.86603 .5 275.465 14.172)" stroke="url(#d)" stroke-width=".69"/></g><g filter="url(#e)"><path d="m118.624 104.38 154.152 89-65.724 37.946c-11.266 6.504-16.899 9.757-23.9 9.757-7 0-12.633-3.253-23.899-9.757L52.9 169.922c-11.267-6.504-16.9-9.756-16.9-13.798 0-4.041 5.633-7.294 16.9-13.798l65.724-37.946Z" fill="url(#f)"/></g><path d="m350.149 87.396-7.592 4.384-1.528-.882 3.302-1.906-3.248-1.875-3.302 1.906-1.516-.876 7.593-4.383 1.516.875-3.076 1.776 3.248 1.875 3.076-1.776 1.527.882Zm2.57 3.284c.58.335.978.706 1.193 1.112.223.41.234.825.033 1.248-.194.418-.603.807-1.226 1.167a5.77 5.77 0 0 1-2.022.708 6.645 6.645 0 0 1-2.162-.019 5.853 5.853 0 0 1-1.925-.689c-.581-.335-.982-.708-1.205-1.118a1.354 1.354 0 0 1-.021-1.242c.194-.418.602-.807 1.226-1.167a5.77 5.77 0 0 1 2.022-.708 6.467 6.467 0 0 1 2.151.013c.71.128 1.355.36 1.936.695Zm-1.312.758c-.423-.245-.932-.365-1.528-.36-.587 0-1.165.163-1.731.49-.567.327-.853.662-.86 1.006 0 .34.211.631.634.875.423.245.929.367 1.516.367.596-.004 1.176-.17 1.743-.497.566-.327.849-.66.849-1 .008-.343-.2-.637-.623-.881Zm8.191 3.214c.581.335.979.706 1.194 1.111.222.41.233.826.032 1.248-.194.419-.602.808-1.226 1.168a5.77 5.77 0 0 1-2.022.708 6.645 6.645 0 0 1-2.162-.019 5.861 5.861 0 0 1-1.925-.69c-.58-.335-.982-.707-1.204-1.117a1.357 1.357 0 0 1-.022-1.242c.194-.418.602-.807 1.226-1.167a5.77 5.77 0 0 1 2.022-.708 6.464 6.464 0 0 1 2.151.012c.71.129 1.355.36 1.936.696Zm-1.312.757c-.423-.244-.932-.364-1.527-.36-.588 0-1.165.164-1.732.49-.566.328-.853.663-.86 1.007 0 .34.211.631.634.875.423.244.929.367 1.517.367.595-.005 1.176-.17 1.742-.497.566-.327.85-.66.85-1 .007-.343-.201-.637-.624-.882Z" fill="#fff"/><path d="M365.843 100.704c.365.318.512.656.441 1.012-.058.356-.316.666-.775.931-.638.369-1.358.536-2.161.503-.789-.033-1.588-.283-2.399-.751l-3.258-1.882 7.593-4.383 3.194 1.844c.767.443 1.186.88 1.258 1.31.079.435-.186.828-.796 1.18a3.39 3.39 0 0 1-1.538.453 3.866 3.866 0 0 1-1.559-.217Zm-2.226-1.857 1.365.789c.38.22.75.337 1.108.354.373.016.717-.067 1.033-.249.315-.182.462-.379.441-.59-.022-.21-.233-.432-.635-.664l-1.344-.776-1.968 1.136Zm-1.732 2.664c.402.232.796.36 1.183.385a1.94 1.94 0 0 0 1.097-.261c.337-.194.484-.408.441-.639-.029-.232-.244-.464-.645-.696l-1.431-.826-2.086 1.205 1.441.832Zm10.989.806c.502.29.814.606.936.95.122.343.057.675-.194.993l1.237-.714 1.506.87-5.958 3.44-1.506-.87 1.247-.72a4.73 4.73 0 0 1-1.731.118 4.247 4.247 0 0 1-1.646-.54c-.501-.29-.831-.621-.989-.994-.158-.372-.122-.757.108-1.155.243-.397.677-.776 1.301-1.136a6.434 6.434 0 0 1 1.957-.745 6.007 6.007 0 0 1 2.011-.068 4.719 4.719 0 0 1 1.721.571Zm-.849 1.037a3.017 3.017 0 0 0-1.603-.391 3.488 3.488 0 0 0-1.699.484c-.538.31-.818.637-.839.981-.014.339.215.646.688.919.459.265.99.393 1.592.385a3.453 3.453 0 0 0 1.71-.466c.531-.306.799-.635.807-.987.021-.352-.198-.66-.656-.925Zm9.343 3.854c.688.398 1.011.845.968 1.342-.043.496-.473.981-1.291 1.453l-3.463 1.999-1.505-.869 3.291-1.9c.473-.274.717-.555.731-.845.022-.294-.179-.563-.602-.807a2.727 2.727 0 0 0-1.452-.354c-.538.012-1.068.17-1.592.472l-3.162 1.825-1.516-.875 5.958-3.44 1.516.876-1.193.689a4.467 4.467 0 0 1 1.71-.093 4.284 4.284 0 0 1 1.602.527Zm1.033 7.576.635-2.639-2.603 1.503-1.516-.876 7.958-4.595 1.517.876-4.474 2.583 4.431-.298 1.796 1.037-5.474.267-.42 3.21-1.85-1.068Z" fill="#5CE1E6"/><path d="M338.502 72.264c-1.891-1.091-4.3-1.835-6.922-2.136-2.623-.301-5.341-.147-7.812.444-2.47.591-4.582 1.591-6.067 2.875-1.486 1.284-2.279 2.793-2.279 4.337 0 1.543.793 3.053 2.279 4.336 1.485 1.284 3.597 2.284 6.067 2.875 2.471.59 5.189.745 7.812.444 2.622-.3 5.031-1.044 6.922-2.136l-4.78-2.76c-.946.546-2.15.918-3.461 1.069a11.43 11.43 0 0 1-3.906-.223c-1.235-.295-2.291-.795-3.034-1.437-.742-.642-1.139-1.396-1.139-2.168 0-.772.397-1.527 1.139-2.169.743-.641 1.799-1.142 3.034-1.437a11.43 11.43 0 0 1 3.906-.222c1.311.15 2.515.522 3.461 1.068l4.78-2.76Z" fill="#fff"/><path d="M338.502 72.264c-1.256-.724-2.746-1.3-4.386-1.692a22.395 22.395 0 0 0-5.174-.594c-1.775 0-3.534.202-5.174.594-1.64.393-3.13.968-4.386 1.692l4.78 2.76a8.242 8.242 0 0 1 2.193-.846c.82-.196 1.699-.297 2.587-.297.888 0 1.767.1 2.587.297.82.196 1.565.484 2.193.846l4.78-2.76Z" fill="#5CE1E6"/><circle cx="3.45" cy="3.45" r="3.45" transform="matrix(.86603 .5 -.86603 .5 328.942 74.334)" fill="#5CE1E6"/><path d="M331.929 79.508c.393-.226.704-.495.916-.79a1.59 1.59 0 0 0 .322-.934c0-.32-.109-.638-.322-.934-.212-.296-.523-.565-.916-.791a5.145 5.145 0 0 0-1.37-.529 6.998 6.998 0 0 0-1.617-.186c-.555 0-1.104.064-1.617.186a5.145 5.145 0 0 0-1.37.529l2.987 1.725 2.987 1.724Z" fill="#fff"/><g opacity=".9" stroke-width=".5"><rect opacity=".75" y="-.25" width="19.29" height="19.29" rx="9.645" transform="matrix(-.86603 -.5 .86603 -.5 184.154 230.496)" stroke="url(#g)"/><rect opacity=".7" y="-.25" width="19.29" height="19.29" rx="9.645" transform="matrix(-.86603 -.5 .86603 -.5 173.808 224.522)" stroke="url(#h)"/></g><g filter="url(#i)"><path d="m279.501 37.362 1.151.664-2.43 1.404-7.593-4.384 1.29-.745 6.442 3.72 1.14-.659Zm-5.599 2.525c.373.215.613.47.721.764.107.294.057.608-.151.944-.215.34-.602.67-1.162.993a5.726 5.726 0 0 1-1.71.664 5.01 5.01 0 0 1-1.645.094c-.516-.058-.961-.195-1.334-.41-.416-.24-.663-.511-.742-.814-.086-.298.018-.61.312-.937a5.007 5.007 0 0 1-1.839.217 3.672 3.672 0 0 1-1.602-.478c-.739-.426-1.054-.91-.947-1.453.115-.538.595-1.051 1.441-1.54a6.149 6.149 0 0 1 2.667-.832c.933-.058 1.768.126 2.506.553.481.277.757.585.828.925.079.343-.046.697-.376 1.062a4.353 4.353 0 0 1 1.635-.187c.516.05.982.195 1.398.435Zm-1.409.59a2.303 2.303 0 0 0-1.28-.304c-.466.029-.918.17-1.355.422-.437.252-.681.513-.731.782-.043.273.129.522.516.745.387.224.821.321 1.301.292a2.988 2.988 0 0 0 1.355-.41c.431-.248.667-.509.71-.782.043-.273-.129-.522-.516-.745Zm-3.205-2.099a2.642 2.642 0 0 0-1.473-.341 3.462 3.462 0 0 0-1.56.478c-.502.29-.778.59-.828.9-.043.315.154.598.592.85.444.258.932.361 1.462.311a3.558 3.558 0 0 0 1.517-.478c.473-.273.749-.565.828-.875.079-.31-.101-.592-.538-.845Zm-3.72 8.63a4.978 4.978 0 0 1-1.559.59 4.338 4.338 0 0 1-1.527.05 3.614 3.614 0 0 1-1.312-.435c-.481-.277-.746-.588-.796-.931-.05-.335.136-.663.559-.981l-.054-.031c-.674.215-1.308.32-1.903.316a3.255 3.255 0 0 1-1.678-.447c-.638-.368-.946-.79-.925-1.266.029-.472.437-.936 1.226-1.391a5.705 5.705 0 0 1 2.571-.776c.91-.046 1.806.144 2.688.57l-1.215.702a3.396 3.396 0 0 0-1.495-.329c-.516.009-1 .143-1.452.404-.423.244-.634.495-.634.751-.008.261.164.493.516.696.423.244.91.335 1.462.273.545-.058 1.126-.265 1.743-.621l.29-.168 1.011.584-.29.168c-1.183.666-1.37 1.233-.56 1.701.352.203.735.3 1.151.292.416-.008.81-.12 1.183-.335.373-.216.57-.462.592-.74.028-.273-.147-.548-.527-.825l1.204-.696c.696.46 1.022.938.979 1.435-.036.5-.452.98-1.248 1.44Zm-7.461 4.308a4.987 4.987 0 0 1-1.559.59 4.338 4.338 0 0 1-1.527.05 3.614 3.614 0 0 1-1.312-.435c-.481-.278-.746-.588-.796-.931-.05-.336.136-.663.559-.982l-.054-.03c-.674.215-1.308.32-1.903.316a3.252 3.252 0 0 1-1.678-.447c-.638-.369-.947-.79-.925-1.267.029-.472.437-.935 1.226-1.39a5.704 5.704 0 0 1 2.57-.777c.911-.045 1.807.145 2.689.572l-1.215.701a3.396 3.396 0 0 0-1.495-.329c-.516.008-1 .143-1.452.404-.423.244-.635.494-.635.751-.007.26.165.493.517.695.423.245.91.336 1.462.274.545-.058 1.126-.265 1.743-.621l.29-.168 1.011.584-.29.167c-1.183.667-1.37 1.234-.56 1.702.352.203.735.3 1.151.291.416-.008.81-.12 1.183-.335.373-.215.57-.461.592-.739.028-.273-.147-.548-.527-.826l1.204-.695c.696.46 1.022.938.979 1.434-.036.501-.452.981-1.248 1.441Zm-14.122 6.862-3.883-5.508 1.291-.745 3.7 5.452 3.764-2.173 1.065.614-5.012 2.894-.925-.534Zm-1.762.707 1.151.664-2.431 1.404-7.593-4.384 1.291-.745 6.442 3.719 1.14-.658Zm-9.848 4.655c.975.414 1.839.403 2.592-.031.545-.315.735-.677.57-1.087-.158-.406-.699-.876-1.624-1.41l-.376-.205c.279.286.355.599.226.938-.129.34-.438.65-.925.931-.746.431-1.553.64-2.42.628-.868-.013-1.707-.253-2.517-.72-.487-.282-.828-.59-1.021-.926a1.091 1.091 0 0 1-.043-1.03c.164-.352.53-.692 1.097-1.019 1.097-.633 2.19-.871 3.28-.714 1.09.157 2.23.58 3.42 1.267 1.362.786 2.162 1.5 2.398 2.142.237.642-.143 1.25-1.14 1.825a4.435 4.435 0 0 1-2.344.621 5.565 5.565 0 0 1-2.334-.54l1.161-.67Zm-.086-3.329a3.398 3.398 0 0 0-1.581-.44 3.063 3.063 0 0 0-1.667.428c-.451.26-.677.544-.677.85-.007.311.226.603.699.876a3.12 3.12 0 0 0 1.581.441c.545 0 1.05-.135 1.516-.404.423-.244.667-.53.732-.856.064-.328-.137-.626-.603-.895Zm-3.915 8.272a4.996 4.996 0 0 1-1.559.59 4.345 4.345 0 0 1-1.528.05 3.621 3.621 0 0 1-1.312-.436c-.48-.277-.745-.587-.796-.931-.05-.335.137-.662.56-.981l-.054-.031c-.674.215-1.309.32-1.904.317a3.251 3.251 0 0 1-1.677-.448c-.639-.368-.947-.79-.925-1.266.028-.472.437-.936 1.226-1.391a5.704 5.704 0 0 1 2.57-.776c.911-.046 1.807.145 2.689.571l-1.216.702a3.389 3.389 0 0 0-1.494-.33 2.949 2.949 0 0 0-1.452.404c-.423.244-.635.495-.635.751-.007.261.165.493.516.696.423.244.911.335 1.463.273.545-.058 1.126-.265 1.742-.62l.291-.168 1.011.583-.291.168c-1.183.666-1.369 1.234-.559 1.701.351.203.735.3 1.151.292a2.43 2.43 0 0 0 1.183-.335c.373-.215.57-.462.591-.74.029-.272-.147-.548-.527-.825l1.205-.695c.695.46 1.022.937.979 1.434-.036.5-.452.981-1.248 1.44Zm-11.057 6.383a4.993 4.993 0 0 1-1.56.59 4.337 4.337 0 0 1-1.527.05 3.615 3.615 0 0 1-1.312-.435c-.48-.277-.746-.587-.796-.931-.05-.335.136-.662.559-.981l-.053-.031c-.674.215-1.309.32-1.904.317a3.258 3.258 0 0 1-1.678-.448c-.638-.368-.946-.79-.925-1.266.029-.472.438-.936 1.226-1.391a5.708 5.708 0 0 1 2.571-.776c.91-.046 1.807.145 2.688.571l-1.215.702a3.393 3.393 0 0 0-1.495-.33c-.516.009-1 .143-1.452.404-.423.244-.634.495-.634.751-.007.261.165.493.516.696.423.244.911.335 1.463.273.545-.058 1.125-.265 1.742-.62l.29-.168 1.011.583-.29.168c-1.183.666-1.37 1.233-.559 1.701.351.203.735.3 1.15.292.416-.008.811-.12 1.183-.335.373-.215.57-.462.592-.74.029-.272-.147-.548-.527-.825l1.205-.695c.695.459 1.021.937.978 1.434-.036.5-.451.981-1.247 1.44Zm-6.988 1.725c.373.215.613.47.72.764.108.294.058.608-.15.944-.215.34-.603.67-1.162.993a5.726 5.726 0 0 1-1.71.665 5.01 5.01 0 0 1-1.645.093c-.517-.058-.961-.195-1.334-.41-.416-.24-.663-.511-.742-.814-.086-.298.018-.61.312-.937a5.007 5.007 0 0 1-1.839.217 3.679 3.679 0 0 1-1.603-.478c-.738-.426-1.054-.91-.946-1.453.115-.538.595-1.051 1.441-1.54a6.149 6.149 0 0 1 2.667-.832c.932-.058 1.768.126 2.506.553.481.277.757.586.828.925.079.343-.046.697-.376 1.062a4.353 4.353 0 0 1 1.635-.187c.516.05.982.195 1.398.435Zm-1.409.59a2.302 2.302 0 0 0-1.28-.304c-.466.029-.918.17-1.355.422-.437.252-.681.513-.731.782-.043.273.129.522.516.745.387.224.821.321 1.301.292a2.993 2.993 0 0 0 1.355-.41c.43-.248.667-.509.71-.782.043-.273-.129-.522-.516-.745Zm-3.205-2.099a2.645 2.645 0 0 0-1.474-.341 3.463 3.463 0 0 0-1.559.478c-.502.29-.778.59-.828.9-.043.315.154.598.591.85.445.258.933.361 1.463.311a3.558 3.558 0 0 0 1.517-.478c.473-.273.749-.565.828-.875.079-.31-.101-.592-.538-.845Zm-8.032 4.613a3.41 3.41 0 0 0-1.366-.304 2.525 2.525 0 0 0-1.259.341c-.545.315-.735.673-.57 1.074.165.41.714.884 1.646 1.422l.376.205c-.272-.29-.344-.608-.215-.956.129-.34.434-.648.914-.925a4.624 4.624 0 0 1 2.42-.627 5.165 5.165 0 0 1 2.517.72c.487.281.828.59 1.022.925.193.335.207.679.043 1.03-.158.357-.52.698-1.087 1.025-1.097.634-2.187.874-3.269.72-1.083-.144-2.216-.558-3.399-1.241-1.34-.774-2.151-1.486-2.43-2.136-.287-.646.057-1.25 1.032-1.813a4.79 4.79 0 0 1 2.409-.659c.853.005 1.646.18 2.377.528l-1.161.67Zm.086 3.328c.466.27.989.414 1.57.435a3.001 3.001 0 0 0 1.678-.422c.444-.257.67-.54.677-.851 0-.306-.24-.598-.72-.876a3.157 3.157 0 0 0-1.571-.447c-.545 0-1.05.135-1.516.404-.273.157-.473.335-.602.534a.733.733 0 0 0-.097.627c.072.215.265.414.581.596Zm-7.448-.506c-.365 1.13-.516 2.115-.451 2.955.064.849.423 1.462 1.075 1.838.387.224.793.346 1.216.367.415.024.835-.085 1.258-.33.437-.252.624-.525.559-.82-.057-.289-.333-.593-.828-.912l1.194-.69c.817.53 1.215 1.067 1.194 1.61-.029.546-.42 1.036-1.173 1.47a4.729 4.729 0 0 1-2.323.659 4.199 4.199 0 0 1-2.248-.565c-.552-.319-.939-.741-1.161-1.267a3.419 3.419 0 0 1-.28-1.652 5.584 5.584 0 0 1 .398-1.645l-3.603 2.08-1-.577 5.27-3.043.903.522Zm-4.998 9.219 1.151.664-2.431 1.404-7.593-4.384 1.291-.745 6.442 3.72 1.14-.659Zm-7.385 1.27c-1.211-.699-2.376-1.123-3.495-1.272-1.111-.145-2.169.072-3.173.652-1.003.58-1.376 1.192-1.118 1.838.258.645.989 1.316 2.194 2.011 1.197.692 2.352 1.11 3.463 1.255 1.118.149 2.18-.066 3.183-.646 1.004-.58 1.381-1.19 1.13-1.832-.251-.641-.979-1.31-2.184-2.005Zm-4.366 2.522c-.875-.505-1.438-.955-1.689-1.348-.251-.393-.068-.768.549-1.124.624-.36 1.276-.468 1.957-.323.681.145 1.459.47 2.334.975.868.501 1.423.946 1.667 1.335.244.39.054.764-.57 1.124a2.664 2.664 0 0 1-1.947.317c-.674-.14-1.441-.46-2.301-.956Zm-6.174.223c-.366 1.13-.516 2.116-.452 2.956.065.849.423 1.461 1.076 1.838.387.224.792.346 1.215.366.416.025.836-.084 1.259-.329.437-.252.623-.525.559-.82-.058-.29-.334-.593-.828-.912l1.193-.69c.818.53 1.216 1.067 1.194 1.609-.028.546-.419 1.037-1.172 1.471a4.73 4.73 0 0 1-2.323.659c-.81.02-1.56-.168-2.248-.565-.552-.319-.939-.741-1.161-1.267a3.408 3.408 0 0 1-.28-1.652c.05-.575.183-1.124.398-1.645l-3.603 2.08-1-.578 5.27-3.042.903.521Zm-2.628 7.144c.373.215.613.469.72.763.108.294.058.609-.15.944-.215.34-.602.671-1.162.994a5.75 5.75 0 0 1-1.71.664 5.018 5.018 0 0 1-1.645.093c-.516-.058-.961-.194-1.334-.41-.416-.24-.663-.511-.742-.813-.086-.298.018-.611.312-.938a5.008 5.008 0 0 1-1.839.218 3.681 3.681 0 0 1-1.603-.479c-.738-.426-1.053-.91-.946-1.453.115-.538.595-1.051 1.441-1.539a6.138 6.138 0 0 1 2.667-.832c.932-.058 1.768.126 2.506.552.481.278.757.586.828.925.079.344-.046.698-.376 1.062a4.336 4.336 0 0 1 1.635-.186c.516.05.982.194 1.398.435Zm-1.409.589a2.304 2.304 0 0 0-1.28-.304 3.07 3.07 0 0 0-1.355.422c-.437.253-.681.514-.731.783-.043.273.129.521.516.745.387.223.821.321 1.301.292a3 3 0 0 0 1.355-.41c.431-.248.667-.509.71-.782.043-.274-.129-.522-.516-.746Zm-3.205-2.098a2.636 2.636 0 0 0-1.473-.342 3.46 3.46 0 0 0-1.56.478c-.502.29-.778.59-.828.901-.043.314.154.598.592.85.444.257.932.36 1.462.311a3.57 3.57 0 0 0 1.517-.478c.473-.274.749-.565.828-.876.079-.31-.101-.592-.538-.844Z" fill="#fff"/></g><g filter="url(#j)"><path d="m79.179 148.924-6.324 2.194-1.004-.579 2.847-2.877-4.983 1.643-1.004-.579 3.8-3.651.896.517-3.24 2.881 5.226-1.734.904.521-3.004 3.018 4.99-1.871.896.517Zm.503 4.869-2.137-1.234-1.484.41-.875-.505 6.847-1.801.94.543-3.126 3.949-.875-.505.71-.857Zm.401-.497 1.527-1.85-3.205.881 1.678.969Zm5.231 2.06-.33 2.765-.996-.575.344-2.509-2.344 1.354-.818-.472 5.062-2.922.818.471-2.316 1.338 4.323-.178.99.571-4.733.157Zm8.07 6.059c-.248.143-.54.242-.874.298-.33.052-.681.045-1.054-.021a3.34 3.34 0 0 1-1.09-.406c-.344-.198-.593-.411-.745-.637-.149-.229-.194-.454-.137-.675.058-.221.218-.421.48-.6l.875.505c-.196.141-.291.303-.286.488.01.188.153.362.43.522.248.143.507.215.774.215.273.003.514-.056.724-.178.182-.105.28-.219.294-.344a.528.528 0 0 0-.093-.376 4.909 4.909 0 0 0-.38-.485 3.967 3.967 0 0 1-.473-.62.695.695 0 0 1-.065-.543c.053-.19.235-.375.545-.554.273-.158.579-.257.918-.298.34-.042.688-.023 1.047.057.363.078.707.21 1.032.398.517.298.8.606.853.923.058.32-.093.608-.451.865l-.882-.509c.158-.13.23-.276.215-.439-.005-.163-.134-.317-.387-.463a1.573 1.573 0 0 0-.732-.216 1.26 1.26 0 0 0-.71.17c-.172.099-.267.21-.286.331a.543.543 0 0 0 .093.36c.086.122.213.28.38.476.22.243.378.453.473.63.105.176.13.361.072.554-.053.196-.24.387-.56.572Zm6.031-.807-3.004 1.734c-.449.26-.686.509-.71.75-.019.242.151.467.51.674.353.205.738.3 1.154.286.42-.011.856-.146 1.305-.406l3.004-1.734.817.472-3.004 1.734c-.693.4-1.398.6-2.115.6a3.848 3.848 0 0 1-1.95-.513c-.583-.337-.875-.709-.875-1.118.005-.411.354-.816 1.047-1.217l3.004-1.734.817.472Zm3.778 8.026-.817-.472 1.276-3.576-3.735 2.156-.818-.472 5.055-2.918.817.472-1.29 3.585 3.75-2.165.817.472-5.055 2.918Zm5.822 2.095-2.137-1.234-1.484.41-.874-.505 6.847-1.801.939.542-3.126 3.949-.875-.505.71-.856Zm.402-.497 1.527-1.851-3.205.882 1.678.969Zm3.747 4.159.76-1.896-.581-.336-2.022 1.168-.817-.472 5.062-2.923 1.785 1.031c.578.334.875.668.889 1.002.019.336-.203.639-.667.906a2.778 2.778 0 0 1-1.312.369 3.44 3.44 0 0 1-1.448-.273l-.731 1.953-.918-.529Zm.76-2.567.903.522c.66.38 1.281.403 1.864.066.278-.16.412-.331.402-.513 0-.183-.17-.372-.509-.568l-.903-.521-1.757 1.014Zm7.461 1.468-5.062 2.923-.817-.472 5.062-2.923.817.472Z" fill="#fff"/></g><g filter="url(#k)"><path d="M58.273 153.415c-.677.391-1.093.76-1.248 1.107-.156.347.041.68.591.997.55.317 1.125.431 1.727.342.605-.088 1.247-.327 1.924-.718.669-.386 1.08-.754 1.23-1.104.156-.347-.041-.679-.59-.997a2.6 2.6 0 0 0-1.728-.341c-.597.087-1.233.325-1.906.714Zm2.456 1.418c-.346.2-.663.353-.95.458a2.339 2.339 0 0 1-.836.159c-.28 0-.55-.076-.813-.228-.259-.149-.388-.304-.388-.465 0-.161.09-.323.269-.487.187-.163.454-.345.8-.545.343-.198.653-.349.932-.455a2.36 2.36 0 0 1 .837-.152c.279 0 .547.075.806.224.263.152.395.308.395.469.004.159-.086.319-.27.48-.178.163-.44.344-.782.542Zm4.549 1.522c.219-.164.326-.325.322-.483.004-.159-.115-.308-.358-.449-.339-.195-.727-.268-1.166-.217-.434.053-.935.244-1.505.573l-.215.131c.298-.104.625-.134.98-.09.358.041.683.146.974.314.418.241.619.502.603.783-.012.283-.243.554-.693.814a2.85 2.85 0 0 1-1.858.342 2.768 2.768 0 0 1-.974-.349c-.602-.347-.827-.695-.675-1.045.155-.347.557-.708 1.207-1.083.748-.433 1.43-.688 2.043-.766a2.733 2.733 0 0 1 1.75.355c.403.233.598.476.586.732-.008.257-.175.503-.502.738l-.52-.3Zm-3.418-.09c-.29.168-.452.358-.484.569-.024.212.133.415.472.611.279.161.584.242.914.245.335 0 .651-.087.95-.259.323-.186.484-.376.484-.569.004-.196-.141-.379-.436-.549a2.117 2.117 0 0 0-1.26-.252 1.57 1.57 0 0 0-.64.204Zm9.154.469-8.287 2.895-.526-.304 8.281-2.898.532.307Zm-4.935 3.167c1.131.129 2.123.182 2.976.159.856-.025 1.477-.149 1.864-.372.239-.138.368-.285.388-.439.028-.154-.094-.309-.365-.465a1.571 1.571 0 0 0-.902-.211 2.4 2.4 0 0 0-.968.283l-.537-.31a3.188 3.188 0 0 1 1.517-.373c.518.005.984.127 1.398.366.395.227.602.469.622.724.02.255-.163.495-.55.718-.319.184-.747.311-1.285.383-.53.071-1.09.099-1.684.082a14.232 14.232 0 0 1-1.661-.138l2.139 1.235-.449.259-2.897-1.673.394-.228Zm5.195 1.019c-.678.391-1.094.76-1.25 1.108-.155.347.043.679.592.997a2.6 2.6 0 0 0 1.727.341c.605-.087 1.247-.326 1.924-.717.67-.387 1.08-.755 1.23-1.104.156-.348-.041-.68-.59-.997a2.6 2.6 0 0 0-1.727-.342c-.598.088-1.233.326-1.907.714Zm2.455 1.418c-.346.2-.663.353-.95.459a2.34 2.34 0 0 1-.836.159c-.28 0-.55-.076-.813-.228-.259-.15-.388-.305-.388-.466 0-.161.09-.323.269-.486.187-.163.454-.345.8-.545a6.55 6.55 0 0 1 .932-.456c.283-.103.562-.154.837-.151.279 0 .547.074.806.224.263.152.395.308.395.469.004.159-.086.319-.27.48-.178.163-.44.343-.782.541Zm-.59 1.64c1.131.128 2.123.181 2.976.158.856-.025 1.478-.149 1.864-.372.239-.138.368-.284.388-.438.028-.154-.093-.31-.364-.466a1.571 1.571 0 0 0-.903-.211 2.4 2.4 0 0 0-.967.283l-.538-.31a3.2 3.2 0 0 1 1.517-.373c.518.005.984.127 1.399.366.394.228.601.469.621.724.02.256-.163.495-.55.718-.318.184-.747.312-1.284.383-.53.071-1.092.099-1.685.083a14.232 14.232 0 0 1-1.661-.138l2.139 1.235-.448.258-2.898-1.673.394-.227Zm3.874 1.602.454-.263 4.983-.379.586.338-2.802 1.618.621.359-.472.272-.621-.359-.968.559-.55-.317.968-.559-2.199-1.269Zm4.846-.218-3.8.276 1.66.959 2.14-1.235Z" fill="#fff" fill-opacity=".7" shape-rendering="crispEdges"/></g><path d="M187.37 159.273c.253-.146.663-.146.916 0l4.835 2.792c.253.146.253.382 0 .528l-2.279 1.316a1.013 1.013 0 0 1-.916 0l-4.835-2.791c-.253-.146-.253-.383 0-.529l2.279-1.316ZM166.793 153.296c.253-.146.663-.146.916 0l4.835 2.792c.253.146.253.383 0 .529l-2.279 1.315a1.006 1.006 0 0 1-.916 0l-4.836-2.791c-.253-.146-.253-.383 0-.529l2.28-1.316ZM171.905 150.344c.253-.146.663-.146.916 0l4.836 2.792c.253.146.253.383 0 .529l-2.279 1.316a1.015 1.015 0 0 1-.917 0l-4.835-2.792c-.253-.146-.253-.383 0-.529l2.279-1.316ZM178.296 155.51c.253-.146.663-.146.916 0l4.964 2.866c.253.146.253.382 0 .529l-4.836 2.791a1.013 1.013 0 0 1-.916 0l-4.963-2.865c-.253-.146-.253-.383 0-.529l4.835-2.792ZM182.26 162.226c.253-.146.663-.146.916 0l4.835 2.792c.253.146.253.382 0 .529l-2.279 1.315a1.013 1.013 0 0 1-.916 0l-4.836-2.791c-.253-.146-.253-.383 0-.529l2.28-1.316ZM180.99 152.847c.53.306.53.801 0 1.107-.176.102-.176.267 0 .369l1.204.695c.253.146.663.146.916 0l1.779-1.027c.254-.147.599-.229.958-.229.208 0 .311-.145.165-.23l-9.356-5.402a1.015 1.015 0 0 0-.917 0l-1.001.578c-.253.146-.253.383 0 .529l6.252 3.61ZM186.677 155.327a.94.94 0 0 0-.458.109l-1.192.689c-.253.146-.253.382 0 .529l1.204.694a.705.705 0 0 0 .639 0c.529-.305 1.388-.305 1.917 0l6.252 3.61c.253.146.663.146.916 0l1.001-.578c.253-.146.253-.383 0-.529l-7.646-4.415a.94.94 0 0 0-.458-.109h-2.175ZM176.646 164.359c-.529-.305-.529-.801 0-1.106.177-.102.177-.267 0-.369l-1.203-.695a1.013 1.013 0 0 0-.916 0l-1.779 1.027c-.254.146-.599.229-.959.229-.207 0-.311.145-.164.229l9.356 5.402c.253.146.663.146.916 0l1.001-.578c.253-.146.253-.383 0-.529l-6.252-3.61ZM170.958 161.879c.172 0 .337-.04.458-.11l1.192-.688c.253-.146.253-.383 0-.529l-1.204-.695a.705.705 0 0 0-.639 0c-.529.306-1.387.306-1.917 0l-6.252-3.609a1.013 1.013 0 0 0-.916 0l-1.001.578c-.253.146-.253.383 0 .529l7.646 4.414c.122.07.287.11.458.11h2.175Z" fill="#fff"/><rect y=".264" width="24.332" height="18.513" rx=".793" transform="matrix(.86603 .5 -.86603 .5 176.427 147.705)" stroke="#fff" stroke-width=".529"/><path d="M164.994 167.779c-1.197-.159-3.661-.836-3.932-2.266m2.307 4.832c-1.858-.275-5.811-1.439-6.759-3.895m5.541 6.296c-2.475-.391-7.845-2.037-9.525-5.488m7.792 7.832c-3.015-.411-9.608-2.352-11.86-6.833" stroke="#fff" stroke-width="1.38" stroke-linecap="round" stroke-linejoin="round" style="mix-blend-mode:overlay"/><path fill-rule="evenodd" clip-rule="evenodd" d="m315.942 167.186 50.153-28.956c-.986-2.279-2.265-4.522-3.835-6.71-3.522-4.91-8.418-9.418-14.45-13.357-4.691-3.064-10.068-5.783-16.021-8.08-13.605-5.248-29.6-8.049-45.963-8.049s-32.358 2.801-45.963 8.049c-13.605 5.249-24.209 12.709-30.471 21.437-5.876 8.19-7.681 17.152-5.243 25.882l34.254 19.776 18.173-10.492c-5.785-3.34-9.725-7.595-11.321-12.228s-.777-9.435 2.354-13.799c3.131-4.364 8.433-8.094 15.236-10.718 6.802-2.624 14.8-4.025 22.981-4.025 8.182 0 16.179 1.401 22.982 4.025a44.722 44.722 0 0 1 6.268 2.97c3.465 2 6.299 4.348 8.355 6.937.212.268.416.538.612.811 1.957 2.728 3.011 5.626 3.136 8.548a14.258 14.258 0 0 1-.782 5.251c-.499 1.448-1.226 2.858-2.168 4.216l-.186.264c-2.069 2.884-5.107 5.52-8.967 7.748l.866.5Zm-48.398-6.833c-10.097-5.829-10.097-15.28 0-21.109 10.096-5.829 26.466-5.829 36.562 0 10.097 5.829 10.097 15.28 0 21.109-4.959 2.864-11.432 4.32-17.932 4.371l-.349.001-.349-.001c-6.5-.051-12.973-1.507-17.932-4.371Z" fill="url(#l)"/></g><defs><linearGradient id="c" x1="0" y1="0" x2="178" y2="284.248" gradientUnits="userSpaceOnUse"><stop stop-color="#fff" stop-opacity=".4"/><stop offset="1" stop-color="#fff" stop-opacity=".1"/></linearGradient><linearGradient id="d" x1="0" y1="9.5" x2="167.5" y2="284" gradientUnits="userSpaceOnUse"><stop stop-color="#fff"/><stop offset="1" stop-color="#fff" stop-opacity=".1"/></linearGradient><linearGradient id="f" x1="97.499" y1="-75.5" x2="264.067" y2="265.832" gradientUnits="userSpaceOnUse"><stop stop-color="#5AE5EA"/><stop offset=".295" stop-color="#5AE5EA" stop-opacity="0"/><stop offset="1" stop-color="#5AE5EA"/></linearGradient><linearGradient id="g" x1="9.895" y1="0" x2="9.895" y2="19.79" gradientUnits="userSpaceOnUse"><stop stop-color="#fff"/><stop offset=".479" stop-opacity=".5"/><stop offset=".938" stop-color="#fff"/></linearGradient><linearGradient id="h" x1="9.895" y1="0" x2="9.895" y2="19.79" gradientUnits="userSpaceOnUse"><stop stop-color="#fff"/><stop offset=".479" stop-opacity=".5"/><stop offset=".938" stop-color="#fff"/></linearGradient><linearGradient id="l" x1="307.597" y1="64.933" x2="305.709" y2="172.043" gradientUnits="userSpaceOnUse"><stop stop-color="#fff"/><stop offset="1" stop-color="#fff" stop-opacity="0"/></linearGradient><filter id="a" x="0" y=".041" width="466.318" height="303.041" filterUnits="userSpaceOnUse" color-interpolation-filters="sRGB"><feFlood flood-opacity="0" result="BackgroundImageFix"/><feColorMatrix in="SourceAlpha" values="0 0 0 0 0 0 0 0 0 0 0 0 0 0 0 0 0 0 127 0" result="hardAlpha"/><feOffset dx="4" dy="22"/><feGaussianBlur stdDeviation="20"/><feComposite in2="hardAlpha" operator="out"/><feColorMatrix values="0 0 0 0 0 0 0 0 0 0 0 0 0 0 0 0 0 0 0.25 0"/><feBlend in2="BackgroundImageFix" result="effect1_dropShadow_310_727"/><feBlend in="SourceGraphic" in2="effect1_dropShadow_310_727" result="shape"/></filter><filter id="b" x="29" y="11.041" width="400.318" height="237.041" filterUnits="userSpaceOnUse" color-interpolation-filters="sRGB"><feFlood flood-opacity="0" result="BackgroundImageFix"/><feGaussianBlur in="BackgroundImageFix" stdDeviation="3.5"/><feComposite in2="SourceAlpha" operator="in" result="effect1_backgroundBlur_310_727"/><feBlend in="SourceGraphic" in2="effect1_backgroundBlur_310_727" result="shape"/></filter><filter id="e" x="29" y="97.38" width="250.776" height="150.703" filterUnits="userSpaceOnUse" color-interpolation-filters="sRGB"><feFlood flood-opacity="0" result="BackgroundImageFix"/><feGaussianBlur in="BackgroundImageFix" stdDeviation="3.5"/><feComposite in2="SourceAlpha" operator="in" result="effect1_backgroundBlur_310_727"/><feBlend in="SourceGraphic" in2="effect1_backgroundBlur_310_727" result="shape"/></filter><filter id="i" x="152.744" y="33.531" width="128.717" height="74.762" filterUnits="userSpaceOnUse" color-interpolation-filters="sRGB"><feFlood flood-opacity="0" result="BackgroundImageFix"/><feColorMatrix in="SourceAlpha" values="0 0 0 0 0 0 0 0 0 0 0 0 0 0 0 0 0 0 127 0" result="hardAlpha"/><feOffset dy=".529"/><feGaussianBlur stdDeviation=".264"/><feComposite in2="hardAlpha" operator="out"/><feColorMatrix values="0 0 0 0 0 0 0 0 0 0 0 0 0 0 0 0 0 0 0.2 0"/><feBlend in2="BackgroundImageFix" result="effect1_dropShadow_310_727"/><feBlend in="SourceGraphic" in2="effect1_dropShadow_310_727" result="shape"/></filter><filter id="j" x="66.399" y="145.037" width="56.051" height="33.206" filterUnits="userSpaceOnUse" color-interpolation-filters="sRGB"><feFlood flood-opacity="0" result="BackgroundImageFix"/><feColorMatrix in="SourceAlpha" values="0 0 0 0 0 0 0 0 0 0 0 0 0 0 0 0 0 0 127 0" result="hardAlpha"/><feOffset dy="1"/><feGaussianBlur stdDeviation=".5"/><feComposite in2="hardAlpha" operator="out"/><feColorMatrix values="0 0 0 0 0 0 0 0 0 0 0 0 0 0 0 0 0 0 0.15 0"/><feBlend in2="BackgroundImageFix" result="effect1_dropShadow_310_727"/><feBlend in="SourceGraphic" in2="effect1_dropShadow_310_727" result="shape"/></filter><filter id="k" x="54.119" y="151.397" width="31.925" height="19.277" filterUnits="userSpaceOnUse" color-interpolation-filters="sRGB"><feFlood flood-opacity="0" result="BackgroundImageFix"/><feColorMatrix in="SourceAlpha" values="0 0 0 0 0 0 0 0 0 0 0 0 0 0 0 0 0 0 127 0" result="hardAlpha"/><feOffset dy="1"/><feGaussianBlur stdDeviation=".5"/><feComposite in2="hardAlpha" operator="out"/><feColorMatrix values="0 0 0 0 0 0 0 0 0 0 0 0 0 0 0 0 0 0 0.15 0"/><feBlend in2="BackgroundImageFix" result="effect1_dropShadow_310_727"/><feBlend in="SourceGraphic" in2="effect1_dropShadow_310_727" result="shape"/></filter></defs></svg>