<?xml version="1.0" encoding="UTF-8" standalone="no"?>
<svg
   xmlns:dc="http://purl.org/dc/elements/1.1/"
   xmlns:cc="http://creativecommons.org/ns#"
   xmlns:rdf="http://www.w3.org/1999/02/22-rdf-syntax-ns#"
   xmlns:svg="http://www.w3.org/2000/svg"
   xmlns="http://www.w3.org/2000/svg"
   xmlns:sodipodi="http://sodipodi.sourceforge.net/DTD/sodipodi-0.dtd"
   xmlns:inkscape="http://www.inkscape.org/namespaces/inkscape"
   width="386.34293"
   height="223.05402"
   fill="none"
   version="1.1"
   id="svg1187"
   sodipodi:docname="card-robot-1.svg"
   inkscape:version="1.0.2-2 (e86c870879, 2021-01-15)">
  <metadata
     id="metadata1191">
    <rdf:RDF>
      <cc:Work
         rdf:about="">
        <dc:format>image/svg+xml</dc:format>
        <dc:type
           rdf:resource="http://purl.org/dc/dcmitype/StillImage" />
        <dc:title></dc:title>
      </cc:Work>
    </rdf:RDF>
  </metadata>
  <sodipodi:namedview
     pagecolor="#ffffff"
     bordercolor="#666666"
     borderopacity="1"
     objecttolerance="10"
     gridtolerance="10"
     guidetolerance="10"
     inkscape:pageopacity="0"
     inkscape:pageshadow="2"
     inkscape:window-width="1920"
     inkscape:window-height="1001"
     id="namedview1189"
     showgrid="false"
     fit-margin-top="0"
     fit-margin-left="0"
     fit-margin-right="0"
     fit-margin-bottom="0"
     inkscape:zoom="1.5653105"
     inkscape:cx="197.51223"
     inkscape:cy="133.9655"
     inkscape:window-x="-9"
     inkscape:window-y="-9"
     inkscape:window-maximized="1"
     inkscape:current-layer="svg1187" />
  <g
     filter="url(#a)"
     id="g1061"
     transform="translate(-35.987772,-18.034499)">
    <g
       filter="url(#b)"
       id="g1017">
      <rect
         width="178"
         height="284.24799"
         rx="13.799"
         transform="matrix(0.86603,0.5,-0.86603,0.5,275.166,14)"
         fill="url(#c)"
         id="rect1013"
         x="0"
         y="0"
         style="fill:url(#c)" />
    </g>
    <g
       filter="url(#e)"
       id="g1021">
      <path
         d="m 118.624,104.38 154.152,89 -65.724,37.946 c -11.266,6.504 -16.899,9.757 -23.9,9.757 -7,0 -12.633,-3.253 -23.899,-9.757 L 52.9,169.922 C 41.633,163.418 36,160.166 36,156.124 c 0,-4.041 5.633,-7.294 16.9,-13.798 z"
         fill="url(#f)"
         id="path1019"
         style="fill:url(#f)" />
    </g>
    <path
       d="m 350.149,87.396 -7.592,4.384 -1.528,-0.882 3.302,-1.906 -3.248,-1.875 -3.302,1.906 -1.516,-0.876 7.593,-4.383 1.516,0.875 -3.076,1.776 3.248,1.875 3.076,-1.776 z m 2.57,3.284 c 0.58,0.335 0.978,0.706 1.193,1.112 0.223,0.41 0.234,0.825 0.033,1.248 -0.194,0.418 -0.603,0.807 -1.226,1.167 a 5.77,5.77 0 0 1 -2.022,0.708 6.645,6.645 0 0 1 -2.162,-0.019 5.853,5.853 0 0 1 -1.925,-0.689 c -0.581,-0.335 -0.982,-0.708 -1.205,-1.118 a 1.354,1.354 0 0 1 -0.021,-1.242 c 0.194,-0.418 0.602,-0.807 1.226,-1.167 a 5.77,5.77 0 0 1 2.022,-0.708 6.467,6.467 0 0 1 2.151,0.013 c 0.71,0.128 1.355,0.36 1.936,0.695 z m -1.312,0.758 c -0.423,-0.245 -0.932,-0.365 -1.528,-0.36 -0.587,0 -1.165,0.163 -1.731,0.49 -0.567,0.327 -0.853,0.662 -0.86,1.006 0,0.34 0.211,0.631 0.634,0.875 0.423,0.245 0.929,0.367 1.516,0.367 0.596,-0.004 1.176,-0.17 1.743,-0.497 0.566,-0.327 0.849,-0.66 0.849,-1 0.008,-0.343 -0.2,-0.637 -0.623,-0.881 z m 8.191,3.214 c 0.581,0.335 0.979,0.706 1.194,1.111 0.222,0.41 0.233,0.826 0.032,1.248 -0.194,0.419 -0.602,0.808 -1.226,1.168 a 5.77,5.77 0 0 1 -2.022,0.708 6.645,6.645 0 0 1 -2.162,-0.019 5.861,5.861 0 0 1 -1.925,-0.69 c -0.58,-0.335 -0.982,-0.707 -1.204,-1.117 a 1.357,1.357 0 0 1 -0.022,-1.242 c 0.194,-0.418 0.602,-0.807 1.226,-1.167 a 5.77,5.77 0 0 1 2.022,-0.708 6.464,6.464 0 0 1 2.151,0.012 c 0.71,0.129 1.355,0.36 1.936,0.696 z m -1.312,0.757 c -0.423,-0.244 -0.932,-0.364 -1.527,-0.36 -0.588,0 -1.165,0.164 -1.732,0.49 -0.566,0.328 -0.853,0.663 -0.86,1.007 0,0.34 0.211,0.631 0.634,0.875 0.423,0.244 0.929,0.367 1.517,0.367 0.595,-0.005 1.176,-0.17 1.742,-0.497 0.566,-0.327 0.85,-0.66 0.85,-1 0.007,-0.343 -0.201,-0.637 -0.624,-0.882 z"
       fill="#fff"
       id="path1023" />
    <path
       d="m 365.843,100.704 c 0.365,0.318 0.512,0.656 0.441,1.012 -0.058,0.356 -0.316,0.666 -0.775,0.931 -0.638,0.369 -1.358,0.536 -2.161,0.503 -0.789,-0.033 -1.588,-0.283 -2.399,-0.751 l -3.258,-1.882 7.593,-4.383 3.194,1.844 c 0.767,0.443 1.186,0.88 1.258,1.31 0.079,0.435 -0.186,0.828 -0.796,1.18 a 3.39,3.39 0 0 1 -1.538,0.453 3.866,3.866 0 0 1 -1.559,-0.217 z m -2.226,-1.857 1.365,0.789 c 0.38,0.22 0.75,0.337 1.108,0.354 0.373,0.016 0.717,-0.067 1.033,-0.249 0.315,-0.182 0.462,-0.379 0.441,-0.59 -0.022,-0.21 -0.233,-0.432 -0.635,-0.664 l -1.344,-0.776 z m -1.732,2.664 c 0.402,0.232 0.796,0.36 1.183,0.385 a 1.94,1.94 0 0 0 1.097,-0.261 c 0.337,-0.194 0.484,-0.408 0.441,-0.639 -0.029,-0.232 -0.244,-0.464 -0.645,-0.696 l -1.431,-0.826 -2.086,1.205 z m 10.989,0.806 c 0.502,0.29 0.814,0.606 0.936,0.95 0.122,0.343 0.057,0.675 -0.194,0.993 l 1.237,-0.714 1.506,0.87 -5.958,3.44 -1.506,-0.87 1.247,-0.72 a 4.73,4.73 0 0 1 -1.731,0.118 4.247,4.247 0 0 1 -1.646,-0.54 c -0.501,-0.29 -0.831,-0.621 -0.989,-0.994 -0.158,-0.372 -0.122,-0.757 0.108,-1.155 0.243,-0.397 0.677,-0.776 1.301,-1.136 a 6.434,6.434 0 0 1 1.957,-0.745 6.007,6.007 0 0 1 2.011,-0.068 4.719,4.719 0 0 1 1.721,0.571 z m -0.849,1.037 a 3.017,3.017 0 0 0 -1.603,-0.391 3.488,3.488 0 0 0 -1.699,0.484 c -0.538,0.31 -0.818,0.637 -0.839,0.981 -0.014,0.339 0.215,0.646 0.688,0.919 0.459,0.265 0.99,0.393 1.592,0.385 a 3.453,3.453 0 0 0 1.71,-0.466 c 0.531,-0.306 0.799,-0.635 0.807,-0.987 0.021,-0.352 -0.198,-0.66 -0.656,-0.925 z m 9.343,3.854 c 0.688,0.398 1.011,0.845 0.968,1.342 -0.043,0.496 -0.473,0.981 -1.291,1.453 l -3.463,1.999 -1.505,-0.869 3.291,-1.9 c 0.473,-0.274 0.717,-0.555 0.731,-0.845 0.022,-0.294 -0.179,-0.563 -0.602,-0.807 a 2.727,2.727 0 0 0 -1.452,-0.354 c -0.538,0.012 -1.068,0.17 -1.592,0.472 l -3.162,1.825 -1.516,-0.875 5.958,-3.44 1.516,0.876 -1.193,0.689 a 4.467,4.467 0 0 1 1.71,-0.093 4.284,4.284 0 0 1 1.602,0.527 z m 1.033,7.576 0.635,-2.639 -2.603,1.503 -1.516,-0.876 7.958,-4.595 1.517,0.876 -4.474,2.583 4.431,-0.298 1.796,1.037 -5.474,0.267 -0.42,3.21 z"
       fill="#5CE1E6"
       id="path1025" />
    <path
       d="m 338.502,72.264 c -1.891,-1.091 -4.3,-1.835 -6.922,-2.136 -2.623,-0.301 -5.341,-0.147 -7.812,0.444 -2.47,0.591 -4.582,1.591 -6.067,2.875 -1.486,1.284 -2.279,2.793 -2.279,4.337 0,1.543 0.793,3.053 2.279,4.336 1.485,1.284 3.597,2.284 6.067,2.875 2.471,0.59 5.189,0.745 7.812,0.444 2.622,-0.3 5.031,-1.044 6.922,-2.136 l -4.78,-2.76 c -0.946,0.546 -2.15,0.918 -3.461,1.069 a 11.43,11.43 0 0 1 -3.906,-0.223 c -1.235,-0.295 -2.291,-0.795 -3.034,-1.437 -0.742,-0.642 -1.139,-1.396 -1.139,-2.168 0,-0.772 0.397,-1.527 1.139,-2.169 0.743,-0.641 1.799,-1.142 3.034,-1.437 a 11.43,11.43 0 0 1 3.906,-0.222 c 1.311,0.15 2.515,0.522 3.461,1.068 z"
       fill="#fff"
       id="path1027" />
    <path
       d="m 338.502,72.264 c -1.256,-0.724 -2.746,-1.3 -4.386,-1.692 a 22.395,22.395 0 0 0 -5.174,-0.594 c -1.775,0 -3.534,0.202 -5.174,0.594 -1.64,0.393 -3.13,0.968 -4.386,1.692 l 4.78,2.76 a 8.242,8.242 0 0 1 2.193,-0.846 c 0.82,-0.196 1.699,-0.297 2.587,-0.297 0.888,0 1.767,0.1 2.587,0.297 0.82,0.196 1.565,0.484 2.193,0.846 z"
       fill="#5CE1E6"
       id="path1029" />
    <circle
       cx="3.45"
       cy="3.45"
       r="3.45"
       transform="matrix(0.86603,0.5,-0.86603,0.5,328.942,74.334)"
       fill="#5CE1E6"
       id="circle1031" />
    <path
       d="m 331.929,79.508 c 0.393,-0.226 0.704,-0.495 0.916,-0.79 a 1.59,1.59 0 0 0 0.322,-0.934 c 0,-0.32 -0.109,-0.638 -0.322,-0.934 -0.212,-0.296 -0.523,-0.565 -0.916,-0.791 a 5.145,5.145 0 0 0 -1.37,-0.529 6.998,6.998 0 0 0 -1.617,-0.186 c -0.555,0 -1.104,0.064 -1.617,0.186 a 5.145,5.145 0 0 0 -1.37,0.529 l 2.987,1.725 z"
       fill="#fff"
       id="path1033" />
    <g
       opacity=".9"
       stroke-width=".5"
       id="g1039">
      <rect
         opacity="0.75"
         y="-0.25"
         width="19.290001"
         height="19.290001"
         rx="9.6450005"
         transform="matrix(-0.86603,-0.5,0.86603,-0.5,184.154,230.496)"
         stroke="url(#g)"
         id="rect1035"
         x="0"
         style="stroke:url(#g)" />
      <rect
         opacity="0.7"
         y="-0.25"
         width="19.290001"
         height="19.290001"
         rx="9.6450005"
         transform="matrix(-0.86603,-0.5,0.86603,-0.5,173.808,224.522)"
         stroke="url(#h)"
         id="rect1037"
         x="0"
         style="stroke:url(#h)" />
    </g>
    <g
       filter="url(#i)"
       id="g1043">
      <path
         d="m 279.501,37.362 1.151,0.664 -2.43,1.404 -7.593,-4.384 1.29,-0.745 6.442,3.72 z m -5.599,2.525 c 0.373,0.215 0.613,0.47 0.721,0.764 0.107,0.294 0.057,0.608 -0.151,0.944 -0.215,0.34 -0.602,0.67 -1.162,0.993 a 5.726,5.726 0 0 1 -1.71,0.664 5.01,5.01 0 0 1 -1.645,0.094 c -0.516,-0.058 -0.961,-0.195 -1.334,-0.41 -0.416,-0.24 -0.663,-0.511 -0.742,-0.814 -0.086,-0.298 0.018,-0.61 0.312,-0.937 a 5.007,5.007 0 0 1 -1.839,0.217 3.672,3.672 0 0 1 -1.602,-0.478 c -0.739,-0.426 -1.054,-0.91 -0.947,-1.453 0.115,-0.538 0.595,-1.051 1.441,-1.54 a 6.149,6.149 0 0 1 2.667,-0.832 c 0.933,-0.058 1.768,0.126 2.506,0.553 0.481,0.277 0.757,0.585 0.828,0.925 0.079,0.343 -0.046,0.697 -0.376,1.062 a 4.353,4.353 0 0 1 1.635,-0.187 c 0.516,0.05 0.982,0.195 1.398,0.435 z m -1.409,0.59 a 2.303,2.303 0 0 0 -1.28,-0.304 c -0.466,0.029 -0.918,0.17 -1.355,0.422 -0.437,0.252 -0.681,0.513 -0.731,0.782 -0.043,0.273 0.129,0.522 0.516,0.745 0.387,0.224 0.821,0.321 1.301,0.292 a 2.988,2.988 0 0 0 1.355,-0.41 c 0.431,-0.248 0.667,-0.509 0.71,-0.782 0.043,-0.273 -0.129,-0.522 -0.516,-0.745 z m -3.205,-2.099 a 2.642,2.642 0 0 0 -1.473,-0.341 3.462,3.462 0 0 0 -1.56,0.478 c -0.502,0.29 -0.778,0.59 -0.828,0.9 -0.043,0.315 0.154,0.598 0.592,0.85 0.444,0.258 0.932,0.361 1.462,0.311 a 3.558,3.558 0 0 0 1.517,-0.478 c 0.473,-0.273 0.749,-0.565 0.828,-0.875 0.079,-0.31 -0.101,-0.592 -0.538,-0.845 z m -3.72,8.63 a 4.978,4.978 0 0 1 -1.559,0.59 4.338,4.338 0 0 1 -1.527,0.05 3.614,3.614 0 0 1 -1.312,-0.435 c -0.481,-0.277 -0.746,-0.588 -0.796,-0.931 -0.05,-0.335 0.136,-0.663 0.559,-0.981 l -0.054,-0.031 c -0.674,0.215 -1.308,0.32 -1.903,0.316 a 3.255,3.255 0 0 1 -1.678,-0.447 c -0.638,-0.368 -0.946,-0.79 -0.925,-1.266 0.029,-0.472 0.437,-0.936 1.226,-1.391 a 5.705,5.705 0 0 1 2.571,-0.776 c 0.91,-0.046 1.806,0.144 2.688,0.57 l -1.215,0.702 a 3.396,3.396 0 0 0 -1.495,-0.329 c -0.516,0.009 -1,0.143 -1.452,0.404 -0.423,0.244 -0.634,0.495 -0.634,0.751 -0.008,0.261 0.164,0.493 0.516,0.696 0.423,0.244 0.91,0.335 1.462,0.273 0.545,-0.058 1.126,-0.265 1.743,-0.621 l 0.29,-0.168 1.011,0.584 -0.29,0.168 c -1.183,0.666 -1.37,1.233 -0.56,1.701 0.352,0.203 0.735,0.3 1.151,0.292 0.416,-0.008 0.81,-0.12 1.183,-0.335 0.373,-0.216 0.57,-0.462 0.592,-0.74 0.028,-0.273 -0.147,-0.548 -0.527,-0.825 l 1.204,-0.696 c 0.696,0.46 1.022,0.938 0.979,1.435 -0.036,0.5 -0.452,0.98 -1.248,1.44 z m -7.461,4.308 a 4.987,4.987 0 0 1 -1.559,0.59 4.338,4.338 0 0 1 -1.527,0.05 3.614,3.614 0 0 1 -1.312,-0.435 c -0.481,-0.278 -0.746,-0.588 -0.796,-0.931 -0.05,-0.336 0.136,-0.663 0.559,-0.982 l -0.054,-0.03 c -0.674,0.215 -1.308,0.32 -1.903,0.316 a 3.252,3.252 0 0 1 -1.678,-0.447 c -0.638,-0.369 -0.947,-0.79 -0.925,-1.267 0.029,-0.472 0.437,-0.935 1.226,-1.39 a 5.704,5.704 0 0 1 2.57,-0.777 c 0.911,-0.045 1.807,0.145 2.689,0.572 l -1.215,0.701 a 3.396,3.396 0 0 0 -1.495,-0.329 c -0.516,0.008 -1,0.143 -1.452,0.404 -0.423,0.244 -0.635,0.494 -0.635,0.751 -0.007,0.26 0.165,0.493 0.517,0.695 0.423,0.245 0.91,0.336 1.462,0.274 0.545,-0.058 1.126,-0.265 1.743,-0.621 l 0.29,-0.168 1.011,0.584 -0.29,0.167 c -1.183,0.667 -1.37,1.234 -0.56,1.702 0.352,0.203 0.735,0.3 1.151,0.291 0.416,-0.008 0.81,-0.12 1.183,-0.335 0.373,-0.215 0.57,-0.461 0.592,-0.739 0.028,-0.273 -0.147,-0.548 -0.527,-0.826 l 1.204,-0.695 c 0.696,0.46 1.022,0.938 0.979,1.434 -0.036,0.501 -0.452,0.981 -1.248,1.441 z m -14.122,6.862 -3.883,-5.508 1.291,-0.745 3.7,5.452 3.764,-2.173 1.065,0.614 -5.012,2.894 z m -1.762,0.707 1.151,0.664 -2.431,1.404 -7.593,-4.384 1.291,-0.745 6.442,3.719 z m -9.848,4.655 c 0.975,0.414 1.839,0.403 2.592,-0.031 0.545,-0.315 0.735,-0.677 0.57,-1.087 -0.158,-0.406 -0.699,-0.876 -1.624,-1.41 l -0.376,-0.205 c 0.279,0.286 0.355,0.599 0.226,0.938 -0.129,0.34 -0.438,0.65 -0.925,0.931 -0.746,0.431 -1.553,0.64 -2.42,0.628 -0.868,-0.013 -1.707,-0.253 -2.517,-0.72 -0.487,-0.282 -0.828,-0.59 -1.021,-0.926 a 1.091,1.091 0 0 1 -0.043,-1.03 c 0.164,-0.352 0.53,-0.692 1.097,-1.019 1.097,-0.633 2.19,-0.871 3.28,-0.714 1.09,0.157 2.23,0.58 3.42,1.267 1.362,0.786 2.162,1.5 2.398,2.142 0.237,0.642 -0.143,1.25 -1.14,1.825 a 4.435,4.435 0 0 1 -2.344,0.621 5.565,5.565 0 0 1 -2.334,-0.54 z m -0.086,-3.329 a 3.398,3.398 0 0 0 -1.581,-0.44 3.063,3.063 0 0 0 -1.667,0.428 c -0.451,0.26 -0.677,0.544 -0.677,0.85 -0.007,0.311 0.226,0.603 0.699,0.876 a 3.12,3.12 0 0 0 1.581,0.441 c 0.545,0 1.05,-0.135 1.516,-0.404 0.423,-0.244 0.667,-0.53 0.732,-0.856 0.064,-0.328 -0.137,-0.626 -0.603,-0.895 z m -3.915,8.272 a 4.996,4.996 0 0 1 -1.559,0.59 4.345,4.345 0 0 1 -1.528,0.05 3.621,3.621 0 0 1 -1.312,-0.436 c -0.48,-0.277 -0.745,-0.587 -0.796,-0.931 -0.05,-0.335 0.137,-0.662 0.56,-0.981 l -0.054,-0.031 c -0.674,0.215 -1.309,0.32 -1.904,0.317 a 3.251,3.251 0 0 1 -1.677,-0.448 c -0.639,-0.368 -0.947,-0.79 -0.925,-1.266 0.028,-0.472 0.437,-0.936 1.226,-1.391 a 5.704,5.704 0 0 1 2.57,-0.776 c 0.911,-0.046 1.807,0.145 2.689,0.571 l -1.216,0.702 a 3.389,3.389 0 0 0 -1.494,-0.33 2.949,2.949 0 0 0 -1.452,0.404 c -0.423,0.244 -0.635,0.495 -0.635,0.751 -0.007,0.261 0.165,0.493 0.516,0.696 0.423,0.244 0.911,0.335 1.463,0.273 0.545,-0.058 1.126,-0.265 1.742,-0.62 l 0.291,-0.168 1.011,0.583 -0.291,0.168 c -1.183,0.666 -1.369,1.234 -0.559,1.701 0.351,0.203 0.735,0.3 1.151,0.292 a 2.43,2.43 0 0 0 1.183,-0.335 c 0.373,-0.215 0.57,-0.462 0.591,-0.74 0.029,-0.272 -0.147,-0.548 -0.527,-0.825 l 1.205,-0.695 c 0.695,0.46 1.022,0.937 0.979,1.434 -0.036,0.5 -0.452,0.981 -1.248,1.44 z m -11.057,6.383 a 4.993,4.993 0 0 1 -1.56,0.59 4.337,4.337 0 0 1 -1.527,0.05 3.615,3.615 0 0 1 -1.312,-0.435 c -0.48,-0.277 -0.746,-0.587 -0.796,-0.931 -0.05,-0.335 0.136,-0.662 0.559,-0.981 l -0.053,-0.031 c -0.674,0.215 -1.309,0.32 -1.904,0.317 a 3.258,3.258 0 0 1 -1.678,-0.448 c -0.638,-0.368 -0.946,-0.79 -0.925,-1.266 0.029,-0.472 0.438,-0.936 1.226,-1.391 a 5.708,5.708 0 0 1 2.571,-0.776 c 0.91,-0.046 1.807,0.145 2.688,0.571 l -1.215,0.702 a 3.393,3.393 0 0 0 -1.495,-0.33 c -0.516,0.009 -1,0.143 -1.452,0.404 -0.423,0.244 -0.634,0.495 -0.634,0.751 -0.007,0.261 0.165,0.493 0.516,0.696 0.423,0.244 0.911,0.335 1.463,0.273 0.545,-0.058 1.125,-0.265 1.742,-0.62 l 0.29,-0.168 1.011,0.583 -0.29,0.168 c -1.183,0.666 -1.37,1.233 -0.559,1.701 0.351,0.203 0.735,0.3 1.15,0.292 0.416,-0.008 0.811,-0.12 1.183,-0.335 0.373,-0.215 0.57,-0.462 0.592,-0.74 0.029,-0.272 -0.147,-0.548 -0.527,-0.825 l 1.205,-0.695 c 0.695,0.459 1.021,0.937 0.978,1.434 -0.036,0.5 -0.451,0.981 -1.247,1.44 z m -6.988,1.725 c 0.373,0.215 0.613,0.47 0.72,0.764 0.108,0.294 0.058,0.608 -0.15,0.944 -0.215,0.34 -0.603,0.67 -1.162,0.993 a 5.726,5.726 0 0 1 -1.71,0.665 5.01,5.01 0 0 1 -1.645,0.093 c -0.517,-0.058 -0.961,-0.195 -1.334,-0.41 -0.416,-0.24 -0.663,-0.511 -0.742,-0.814 -0.086,-0.298 0.018,-0.61 0.312,-0.937 a 5.007,5.007 0 0 1 -1.839,0.217 3.679,3.679 0 0 1 -1.603,-0.478 c -0.738,-0.426 -1.054,-0.91 -0.946,-1.453 0.115,-0.538 0.595,-1.051 1.441,-1.54 a 6.149,6.149 0 0 1 2.667,-0.832 c 0.932,-0.058 1.768,0.126 2.506,0.553 0.481,0.277 0.757,0.586 0.828,0.925 0.079,0.343 -0.046,0.697 -0.376,1.062 a 4.353,4.353 0 0 1 1.635,-0.187 c 0.516,0.05 0.982,0.195 1.398,0.435 z m -1.409,0.59 a 2.302,2.302 0 0 0 -1.28,-0.304 c -0.466,0.029 -0.918,0.17 -1.355,0.422 -0.437,0.252 -0.681,0.513 -0.731,0.782 -0.043,0.273 0.129,0.522 0.516,0.745 0.387,0.224 0.821,0.321 1.301,0.292 a 2.993,2.993 0 0 0 1.355,-0.41 c 0.43,-0.248 0.667,-0.509 0.71,-0.782 0.043,-0.273 -0.129,-0.522 -0.516,-0.745 z m -3.205,-2.099 a 2.645,2.645 0 0 0 -1.474,-0.341 3.463,3.463 0 0 0 -1.559,0.478 c -0.502,0.29 -0.778,0.59 -0.828,0.9 -0.043,0.315 0.154,0.598 0.591,0.85 0.445,0.258 0.933,0.361 1.463,0.311 a 3.558,3.558 0 0 0 1.517,-0.478 c 0.473,-0.273 0.749,-0.565 0.828,-0.875 0.079,-0.31 -0.101,-0.592 -0.538,-0.845 z m -8.032,4.613 a 3.41,3.41 0 0 0 -1.366,-0.304 2.525,2.525 0 0 0 -1.259,0.341 c -0.545,0.315 -0.735,0.673 -0.57,1.074 0.165,0.41 0.714,0.884 1.646,1.422 l 0.376,0.205 c -0.272,-0.29 -0.344,-0.608 -0.215,-0.956 0.129,-0.34 0.434,-0.648 0.914,-0.925 a 4.624,4.624 0 0 1 2.42,-0.627 5.165,5.165 0 0 1 2.517,0.72 c 0.487,0.281 0.828,0.59 1.022,0.925 0.193,0.335 0.207,0.679 0.043,1.03 -0.158,0.357 -0.52,0.698 -1.087,1.025 -1.097,0.634 -2.187,0.874 -3.269,0.72 -1.083,-0.144 -2.216,-0.558 -3.399,-1.241 -1.34,-0.774 -2.151,-1.486 -2.43,-2.136 -0.287,-0.646 0.057,-1.25 1.032,-1.813 a 4.79,4.79 0 0 1 2.409,-0.659 c 0.853,0.005 1.646,0.18 2.377,0.528 l -1.161,0.67 z m 0.086,3.328 c 0.466,0.27 0.989,0.414 1.57,0.435 a 3.001,3.001 0 0 0 1.678,-0.422 c 0.444,-0.257 0.67,-0.54 0.677,-0.851 0,-0.306 -0.24,-0.598 -0.72,-0.876 a 3.157,3.157 0 0 0 -1.571,-0.447 c -0.545,0 -1.05,0.135 -1.516,0.404 -0.273,0.157 -0.473,0.335 -0.602,0.534 a 0.733,0.733 0 0 0 -0.097,0.627 c 0.072,0.215 0.265,0.414 0.581,0.596 z m -7.448,-0.506 c -0.365,1.13 -0.516,2.115 -0.451,2.955 0.064,0.849 0.423,1.462 1.075,1.838 0.387,0.224 0.793,0.346 1.216,0.367 0.415,0.024 0.835,-0.085 1.258,-0.33 0.437,-0.252 0.624,-0.525 0.559,-0.82 -0.057,-0.289 -0.333,-0.593 -0.828,-0.912 l 1.194,-0.69 c 0.817,0.53 1.215,1.067 1.194,1.61 -0.029,0.546 -0.42,1.036 -1.173,1.47 a 4.729,4.729 0 0 1 -2.323,0.659 4.199,4.199 0 0 1 -2.248,-0.565 c -0.552,-0.319 -0.939,-0.741 -1.161,-1.267 a 3.419,3.419 0 0 1 -0.28,-1.652 5.584,5.584 0 0 1 0.398,-1.645 l -3.603,2.08 -1,-0.577 5.27,-3.043 z m -4.998,9.219 1.151,0.664 -2.431,1.404 -7.593,-4.384 1.291,-0.745 6.442,3.72 z m -7.385,1.27 c -1.211,-0.699 -2.376,-1.123 -3.495,-1.272 -1.111,-0.145 -2.169,0.072 -3.173,0.652 -1.003,0.58 -1.376,1.192 -1.118,1.838 0.258,0.645 0.989,1.316 2.194,2.011 1.197,0.692 2.352,1.11 3.463,1.255 1.118,0.149 2.18,-0.066 3.183,-0.646 1.004,-0.58 1.381,-1.19 1.13,-1.832 -0.251,-0.641 -0.979,-1.31 -2.184,-2.005 z m -4.366,2.522 c -0.875,-0.505 -1.438,-0.955 -1.689,-1.348 -0.251,-0.393 -0.068,-0.768 0.549,-1.124 0.624,-0.36 1.276,-0.468 1.957,-0.323 0.681,0.145 1.459,0.47 2.334,0.975 0.868,0.501 1.423,0.946 1.667,1.335 0.244,0.39 0.054,0.764 -0.57,1.124 a 2.664,2.664 0 0 1 -1.947,0.317 c -0.674,-0.14 -1.441,-0.46 -2.301,-0.956 z m -6.174,0.223 c -0.366,1.13 -0.516,2.116 -0.452,2.956 0.065,0.849 0.423,1.461 1.076,1.838 0.387,0.224 0.792,0.346 1.215,0.366 0.416,0.025 0.836,-0.084 1.259,-0.329 0.437,-0.252 0.623,-0.525 0.559,-0.82 -0.058,-0.29 -0.334,-0.593 -0.828,-0.912 l 1.193,-0.69 c 0.818,0.53 1.216,1.067 1.194,1.609 -0.028,0.546 -0.419,1.037 -1.172,1.471 a 4.73,4.73 0 0 1 -2.323,0.659 c -0.81,0.02 -1.56,-0.168 -2.248,-0.565 -0.552,-0.319 -0.939,-0.741 -1.161,-1.267 a 3.408,3.408 0 0 1 -0.28,-1.652 c 0.05,-0.575 0.183,-1.124 0.398,-1.645 l -3.603,2.08 -1,-0.578 5.27,-3.042 z m -2.628,7.144 c 0.373,0.215 0.613,0.469 0.72,0.763 0.108,0.294 0.058,0.609 -0.15,0.944 -0.215,0.34 -0.602,0.671 -1.162,0.994 a 5.75,5.75 0 0 1 -1.71,0.664 5.018,5.018 0 0 1 -1.645,0.093 c -0.516,-0.058 -0.961,-0.194 -1.334,-0.41 -0.416,-0.24 -0.663,-0.511 -0.742,-0.813 -0.086,-0.298 0.018,-0.611 0.312,-0.938 a 5.008,5.008 0 0 1 -1.839,0.218 3.681,3.681 0 0 1 -1.603,-0.479 c -0.738,-0.426 -1.053,-0.91 -0.946,-1.453 0.115,-0.538 0.595,-1.051 1.441,-1.539 a 6.138,6.138 0 0 1 2.667,-0.832 c 0.932,-0.058 1.768,0.126 2.506,0.552 0.481,0.278 0.757,0.586 0.828,0.925 0.079,0.344 -0.046,0.698 -0.376,1.062 a 4.336,4.336 0 0 1 1.635,-0.186 c 0.516,0.05 0.982,0.194 1.398,0.435 z m -1.409,0.589 a 2.304,2.304 0 0 0 -1.28,-0.304 3.07,3.07 0 0 0 -1.355,0.422 c -0.437,0.253 -0.681,0.514 -0.731,0.783 -0.043,0.273 0.129,0.521 0.516,0.745 0.387,0.223 0.821,0.321 1.301,0.292 a 3,3 0 0 0 1.355,-0.41 c 0.431,-0.248 0.667,-0.509 0.71,-0.782 0.043,-0.274 -0.129,-0.522 -0.516,-0.746 z m -3.205,-2.098 a 2.636,2.636 0 0 0 -1.473,-0.342 3.46,3.46 0 0 0 -1.56,0.478 c -0.502,0.29 -0.778,0.59 -0.828,0.901 -0.043,0.314 0.154,0.598 0.592,0.85 0.444,0.257 0.932,0.36 1.462,0.311 a 3.57,3.57 0 0 0 1.517,-0.478 c 0.473,-0.274 0.749,-0.565 0.828,-0.876 0.079,-0.31 -0.101,-0.592 -0.538,-0.844 z"
         fill="#fff"
         id="path1041" />
    </g>
    <g
       filter="url(#j)"
       id="g1047">
      <path
         d="m 79.179,148.924 -6.324,2.194 -1.004,-0.579 2.847,-2.877 -4.983,1.643 -1.004,-0.579 3.8,-3.651 0.896,0.517 -3.24,2.881 5.226,-1.734 0.904,0.521 -3.004,3.018 4.99,-1.871 z m 0.503,4.869 -2.137,-1.234 -1.484,0.41 -0.875,-0.505 6.847,-1.801 0.94,0.543 -3.126,3.949 -0.875,-0.505 z m 0.401,-0.497 1.527,-1.85 -3.205,0.881 z m 5.231,2.06 -0.33,2.765 -0.996,-0.575 0.344,-2.509 -2.344,1.354 -0.818,-0.472 5.062,-2.922 0.818,0.471 -2.316,1.338 4.323,-0.178 0.99,0.571 z m 8.07,6.059 c -0.248,0.143 -0.54,0.242 -0.874,0.298 -0.33,0.052 -0.681,0.045 -1.054,-0.021 a 3.34,3.34 0 0 1 -1.09,-0.406 c -0.344,-0.198 -0.593,-0.411 -0.745,-0.637 -0.149,-0.229 -0.194,-0.454 -0.137,-0.675 0.058,-0.221 0.218,-0.421 0.48,-0.6 l 0.875,0.505 c -0.196,0.141 -0.291,0.303 -0.286,0.488 0.01,0.188 0.153,0.362 0.43,0.522 0.248,0.143 0.507,0.215 0.774,0.215 0.273,0.003 0.514,-0.056 0.724,-0.178 0.182,-0.105 0.28,-0.219 0.294,-0.344 a 0.528,0.528 0 0 0 -0.093,-0.376 4.909,4.909 0 0 0 -0.38,-0.485 3.967,3.967 0 0 1 -0.473,-0.62 0.695,0.695 0 0 1 -0.065,-0.543 c 0.053,-0.19 0.235,-0.375 0.545,-0.554 0.273,-0.158 0.579,-0.257 0.918,-0.298 0.34,-0.042 0.688,-0.023 1.047,0.057 0.363,0.078 0.707,0.21 1.032,0.398 0.517,0.298 0.8,0.606 0.853,0.923 0.058,0.32 -0.093,0.608 -0.451,0.865 l -0.882,-0.509 c 0.158,-0.13 0.23,-0.276 0.215,-0.439 -0.005,-0.163 -0.134,-0.317 -0.387,-0.463 a 1.573,1.573 0 0 0 -0.732,-0.216 1.26,1.26 0 0 0 -0.71,0.17 c -0.172,0.099 -0.267,0.21 -0.286,0.331 a 0.543,0.543 0 0 0 0.093,0.36 c 0.086,0.122 0.213,0.28 0.38,0.476 0.22,0.243 0.378,0.453 0.473,0.63 0.105,0.176 0.13,0.361 0.072,0.554 -0.053,0.196 -0.24,0.387 -0.56,0.572 z m 6.031,-0.807 -3.004,1.734 c -0.449,0.26 -0.686,0.509 -0.71,0.75 -0.019,0.242 0.151,0.467 0.51,0.674 0.353,0.205 0.738,0.3 1.154,0.286 0.42,-0.011 0.856,-0.146 1.305,-0.406 l 3.004,-1.734 0.817,0.472 -3.004,1.734 c -0.693,0.4 -1.398,0.6 -2.115,0.6 a 3.848,3.848 0 0 1 -1.95,-0.513 c -0.583,-0.337 -0.875,-0.709 -0.875,-1.118 0.005,-0.411 0.354,-0.816 1.047,-1.217 l 3.004,-1.734 z m 3.778,8.026 -0.817,-0.472 1.276,-3.576 -3.735,2.156 -0.818,-0.472 5.055,-2.918 0.817,0.472 -1.29,3.585 3.75,-2.165 0.817,0.472 z m 5.822,2.095 -2.137,-1.234 -1.484,0.41 -0.874,-0.505 6.847,-1.801 0.939,0.542 -3.126,3.949 -0.875,-0.505 z m 0.402,-0.497 1.527,-1.851 -3.205,0.882 z m 3.747,4.159 0.76,-1.896 -0.581,-0.336 -2.022,1.168 -0.817,-0.472 5.062,-2.923 1.785,1.031 c 0.578,0.334 0.875,0.668 0.889,1.002 0.019,0.336 -0.203,0.639 -0.667,0.906 a 2.778,2.778 0 0 1 -1.312,0.369 3.44,3.44 0 0 1 -1.448,-0.273 l -0.731,1.953 z m 0.76,-2.567 0.903,0.522 c 0.66,0.38 1.281,0.403 1.864,0.066 0.278,-0.16 0.412,-0.331 0.402,-0.513 0,-0.183 -0.17,-0.372 -0.509,-0.568 l -0.903,-0.521 z m 7.461,1.468 -5.062,2.923 -0.817,-0.472 5.062,-2.923 z"
         fill="#fff"
         id="path1045" />
    </g>
    <g
       filter="url(#k)"
       id="g1051">
      <path
         d="m 58.273,153.415 c -0.677,0.391 -1.093,0.76 -1.248,1.107 -0.156,0.347 0.041,0.68 0.591,0.997 0.55,0.317 1.125,0.431 1.727,0.342 0.605,-0.088 1.247,-0.327 1.924,-0.718 0.669,-0.386 1.08,-0.754 1.23,-1.104 0.156,-0.347 -0.041,-0.679 -0.59,-0.997 a 2.6,2.6 0 0 0 -1.728,-0.341 c -0.597,0.087 -1.233,0.325 -1.906,0.714 z m 2.456,1.418 c -0.346,0.2 -0.663,0.353 -0.95,0.458 a 2.339,2.339 0 0 1 -0.836,0.159 c -0.28,0 -0.55,-0.076 -0.813,-0.228 -0.259,-0.149 -0.388,-0.304 -0.388,-0.465 0,-0.161 0.09,-0.323 0.269,-0.487 0.187,-0.163 0.454,-0.345 0.8,-0.545 0.343,-0.198 0.653,-0.349 0.932,-0.455 a 2.36,2.36 0 0 1 0.837,-0.152 c 0.279,0 0.547,0.075 0.806,0.224 0.263,0.152 0.395,0.308 0.395,0.469 0.004,0.159 -0.086,0.319 -0.27,0.48 -0.178,0.163 -0.44,0.344 -0.782,0.542 z m 4.549,1.522 c 0.219,-0.164 0.326,-0.325 0.322,-0.483 0.004,-0.159 -0.115,-0.308 -0.358,-0.449 -0.339,-0.195 -0.727,-0.268 -1.166,-0.217 -0.434,0.053 -0.935,0.244 -1.505,0.573 l -0.215,0.131 c 0.298,-0.104 0.625,-0.134 0.98,-0.09 0.358,0.041 0.683,0.146 0.974,0.314 0.418,0.241 0.619,0.502 0.603,0.783 -0.012,0.283 -0.243,0.554 -0.693,0.814 a 2.85,2.85 0 0 1 -1.858,0.342 2.768,2.768 0 0 1 -0.974,-0.349 c -0.602,-0.347 -0.827,-0.695 -0.675,-1.045 0.155,-0.347 0.557,-0.708 1.207,-1.083 0.748,-0.433 1.43,-0.688 2.043,-0.766 a 2.733,2.733 0 0 1 1.75,0.355 c 0.403,0.233 0.598,0.476 0.586,0.732 -0.008,0.257 -0.175,0.503 -0.502,0.738 l -0.52,-0.3 z m -3.418,-0.09 c -0.29,0.168 -0.452,0.358 -0.484,0.569 -0.024,0.212 0.133,0.415 0.472,0.611 0.279,0.161 0.584,0.242 0.914,0.245 0.335,0 0.651,-0.087 0.95,-0.259 0.323,-0.186 0.484,-0.376 0.484,-0.569 0.004,-0.196 -0.141,-0.379 -0.436,-0.549 a 2.117,2.117 0 0 0 -1.26,-0.252 1.57,1.57 0 0 0 -0.64,0.204 z m 9.154,0.469 -8.287,2.895 -0.526,-0.304 8.281,-2.898 z m -4.935,3.167 c 1.131,0.129 2.123,0.182 2.976,0.159 0.856,-0.025 1.477,-0.149 1.864,-0.372 0.239,-0.138 0.368,-0.285 0.388,-0.439 0.028,-0.154 -0.094,-0.309 -0.365,-0.465 a 1.571,1.571 0 0 0 -0.902,-0.211 2.4,2.4 0 0 0 -0.968,0.283 l -0.537,-0.31 a 3.188,3.188 0 0 1 1.517,-0.373 c 0.518,0.005 0.984,0.127 1.398,0.366 0.395,0.227 0.602,0.469 0.622,0.724 0.02,0.255 -0.163,0.495 -0.55,0.718 -0.319,0.184 -0.747,0.311 -1.285,0.383 -0.53,0.071 -1.09,0.099 -1.684,0.082 a 14.232,14.232 0 0 1 -1.661,-0.138 l 2.139,1.235 -0.449,0.259 -2.897,-1.673 z m 5.195,1.019 c -0.678,0.391 -1.094,0.76 -1.25,1.108 -0.155,0.347 0.043,0.679 0.592,0.997 a 2.6,2.6 0 0 0 1.727,0.341 c 0.605,-0.087 1.247,-0.326 1.924,-0.717 0.67,-0.387 1.08,-0.755 1.23,-1.104 0.156,-0.348 -0.041,-0.68 -0.59,-0.997 a 2.6,2.6 0 0 0 -1.727,-0.342 c -0.598,0.088 -1.233,0.326 -1.907,0.714 z m 2.455,1.418 c -0.346,0.2 -0.663,0.353 -0.95,0.459 a 2.34,2.34 0 0 1 -0.836,0.159 c -0.28,0 -0.55,-0.076 -0.813,-0.228 -0.259,-0.15 -0.388,-0.305 -0.388,-0.466 0,-0.161 0.09,-0.323 0.269,-0.486 0.187,-0.163 0.454,-0.345 0.8,-0.545 a 6.55,6.55 0 0 1 0.932,-0.456 c 0.283,-0.103 0.562,-0.154 0.837,-0.151 0.279,0 0.547,0.074 0.806,0.224 0.263,0.152 0.395,0.308 0.395,0.469 0.004,0.159 -0.086,0.319 -0.27,0.48 -0.178,0.163 -0.44,0.343 -0.782,0.541 z m -0.59,1.64 c 1.131,0.128 2.123,0.181 2.976,0.158 0.856,-0.025 1.478,-0.149 1.864,-0.372 0.239,-0.138 0.368,-0.284 0.388,-0.438 0.028,-0.154 -0.093,-0.31 -0.364,-0.466 a 1.571,1.571 0 0 0 -0.903,-0.211 2.4,2.4 0 0 0 -0.967,0.283 l -0.538,-0.31 a 3.2,3.2 0 0 1 1.517,-0.373 c 0.518,0.005 0.984,0.127 1.399,0.366 0.394,0.228 0.601,0.469 0.621,0.724 0.02,0.256 -0.163,0.495 -0.55,0.718 -0.318,0.184 -0.747,0.312 -1.284,0.383 -0.53,0.071 -1.092,0.099 -1.685,0.083 a 14.232,14.232 0 0 1 -1.661,-0.138 l 2.139,1.235 -0.448,0.258 -2.898,-1.673 z m 3.874,1.602 0.454,-0.263 4.983,-0.379 0.586,0.338 -2.802,1.618 0.621,0.359 -0.472,0.272 -0.621,-0.359 -0.968,0.559 -0.55,-0.317 0.968,-0.559 z m 4.846,-0.218 -3.8,0.276 1.66,0.959 z"
         fill="#ffffff"
         fill-opacity="0.7"
         shape-rendering="crispEdges"
         id="path1049" />
    </g>
    <path
       d="m 187.37,159.273 c 0.253,-0.146 0.663,-0.146 0.916,0 l 4.835,2.792 c 0.253,0.146 0.253,0.382 0,0.528 l -2.279,1.316 a 1.013,1.013 0 0 1 -0.916,0 l -4.835,-2.791 c -0.253,-0.146 -0.253,-0.383 0,-0.529 z m -20.577,-5.977 c 0.253,-0.146 0.663,-0.146 0.916,0 l 4.835,2.792 c 0.253,0.146 0.253,0.383 0,0.529 l -2.279,1.315 a 1.006,1.006 0 0 1 -0.916,0 l -4.836,-2.791 c -0.253,-0.146 -0.253,-0.383 0,-0.529 z m 5.112,-2.952 c 0.253,-0.146 0.663,-0.146 0.916,0 l 4.836,2.792 c 0.253,0.146 0.253,0.383 0,0.529 l -2.279,1.316 a 1.015,1.015 0 0 1 -0.917,0 l -4.835,-2.792 c -0.253,-0.146 -0.253,-0.383 0,-0.529 z m 6.391,5.166 c 0.253,-0.146 0.663,-0.146 0.916,0 l 4.964,2.866 c 0.253,0.146 0.253,0.382 0,0.529 l -4.836,2.791 a 1.013,1.013 0 0 1 -0.916,0 l -4.963,-2.865 c -0.253,-0.146 -0.253,-0.383 0,-0.529 z m 3.964,6.716 c 0.253,-0.146 0.663,-0.146 0.916,0 l 4.835,2.792 c 0.253,0.146 0.253,0.382 0,0.529 l -2.279,1.315 a 1.013,1.013 0 0 1 -0.916,0 l -4.836,-2.791 c -0.253,-0.146 -0.253,-0.383 0,-0.529 z m -1.27,-9.379 c 0.53,0.306 0.53,0.801 0,1.107 -0.176,0.102 -0.176,0.267 0,0.369 l 1.204,0.695 c 0.253,0.146 0.663,0.146 0.916,0 l 1.779,-1.027 c 0.254,-0.147 0.599,-0.229 0.958,-0.229 0.208,0 0.311,-0.145 0.165,-0.23 l -9.356,-5.402 a 1.015,1.015 0 0 0 -0.917,0 l -1.001,0.578 c -0.253,0.146 -0.253,0.383 0,0.529 z m 5.687,2.48 a 0.94,0.94 0 0 0 -0.458,0.109 l -1.192,0.689 c -0.253,0.146 -0.253,0.382 0,0.529 l 1.204,0.694 a 0.705,0.705 0 0 0 0.639,0 c 0.529,-0.305 1.388,-0.305 1.917,0 l 6.252,3.61 c 0.253,0.146 0.663,0.146 0.916,0 l 1.001,-0.578 c 0.253,-0.146 0.253,-0.383 0,-0.529 l -7.646,-4.415 a 0.94,0.94 0 0 0 -0.458,-0.109 z m -10.031,9.032 c -0.529,-0.305 -0.529,-0.801 0,-1.106 0.177,-0.102 0.177,-0.267 0,-0.369 l -1.203,-0.695 a 1.013,1.013 0 0 0 -0.916,0 l -1.779,1.027 c -0.254,0.146 -0.599,0.229 -0.959,0.229 -0.207,0 -0.311,0.145 -0.164,0.229 l 9.356,5.402 c 0.253,0.146 0.663,0.146 0.916,0 l 1.001,-0.578 c 0.253,-0.146 0.253,-0.383 0,-0.529 z m -5.688,-2.48 c 0.172,0 0.337,-0.04 0.458,-0.11 l 1.192,-0.688 c 0.253,-0.146 0.253,-0.383 0,-0.529 l -1.204,-0.695 a 0.705,0.705 0 0 0 -0.639,0 c -0.529,0.306 -1.387,0.306 -1.917,0 l -6.252,-3.609 a 1.013,1.013 0 0 0 -0.916,0 l -1.001,0.578 c -0.253,0.146 -0.253,0.383 0,0.529 l 7.646,4.414 c 0.122,0.07 0.287,0.11 0.458,0.11 z"
       fill="#fff"
       id="path1053" />
    <rect
       y="0.264"
       width="24.332001"
       height="18.513"
       rx="0.79299998"
       transform="matrix(0.86603,0.5,-0.86603,0.5,176.427,147.705)"
       stroke="#fff"
       stroke-width=".529"
       id="rect1055"
       x="0" />
    <path
       d="m 164.994,167.779 c -1.197,-0.159 -3.661,-0.836 -3.932,-2.266 m 2.307,4.832 c -1.858,-0.275 -5.811,-1.439 -6.759,-3.895 m 5.541,6.296 c -2.475,-0.391 -7.845,-2.037 -9.525,-5.488 m 7.792,7.832 c -3.015,-0.411 -9.608,-2.352 -11.86,-6.833"
       stroke="#ffffff"
       stroke-width="1.38"
       stroke-linecap="round"
       stroke-linejoin="round"
       style="mix-blend-mode:overlay"
       id="path1057" />
    <path
       fill-rule="evenodd"
       clip-rule="evenodd"
       d="m 315.942,167.186 50.153,-28.956 c -0.986,-2.279 -2.265,-4.522 -3.835,-6.71 -3.522,-4.91 -8.418,-9.418 -14.45,-13.357 -4.691,-3.064 -10.068,-5.783 -16.021,-8.08 -13.605,-5.248 -29.6,-8.049 -45.963,-8.049 -16.363,0 -32.358,2.801 -45.963,8.049 -13.605,5.249 -24.209,12.709 -30.471,21.437 -5.876,8.19 -7.681,17.152 -5.243,25.882 l 34.254,19.776 18.173,-10.492 c -5.785,-3.34 -9.725,-7.595 -11.321,-12.228 -1.596,-4.633 -0.777,-9.435 2.354,-13.799 3.131,-4.364 8.433,-8.094 15.236,-10.718 6.802,-2.624 14.8,-4.025 22.981,-4.025 8.182,0 16.179,1.401 22.982,4.025 a 44.722,44.722 0 0 1 6.268,2.97 c 3.465,2 6.299,4.348 8.355,6.937 0.212,0.268 0.416,0.538 0.612,0.811 1.957,2.728 3.011,5.626 3.136,8.548 a 14.258,14.258 0 0 1 -0.782,5.251 c -0.499,1.448 -1.226,2.858 -2.168,4.216 l -0.186,0.264 c -2.069,2.884 -5.107,5.52 -8.967,7.748 z m -48.398,-6.833 c -10.097,-5.829 -10.097,-15.28 0,-21.109 10.096,-5.829 26.466,-5.829 36.562,0 10.097,5.829 10.097,15.28 0,21.109 -4.959,2.864 -11.432,4.32 -17.932,4.371 l -0.349,0.001 -0.349,-0.001 c -6.5,-0.051 -12.973,-1.507 -17.932,-4.371 z"
       fill="url(#l)"
       id="path1059"
       style="fill:url(#l)" />
  </g>
  <defs
     id="defs1185">
    <linearGradient
       id="c"
       x1="0"
       y1="0"
       x2="178"
       y2="284.24799"
       gradientUnits="userSpaceOnUse">
      <stop
         stop-color="#fff"
         stop-opacity=".4"
         id="stop1063" />
      <stop
         offset="1"
         stop-color="#fff"
         stop-opacity=".1"
         id="stop1065" />
    </linearGradient>
    <linearGradient
       id="d"
       x1="0"
       y1="9.5"
       x2="167.5"
       y2="284"
       gradientUnits="userSpaceOnUse">
      <stop
         stop-color="#fff"
         id="stop1068" />
      <stop
         offset="1"
         stop-color="#fff"
         stop-opacity=".1"
         id="stop1070" />
    </linearGradient>
    <linearGradient
       id="f"
       x1="97.499001"
       y1="-75.5"
       x2="264.06699"
       y2="265.832"
       gradientUnits="userSpaceOnUse">
      <stop
         stop-color="#5AE5EA"
         id="stop1073" />
      <stop
         offset=".295"
         stop-color="#5AE5EA"
         stop-opacity="0"
         id="stop1075" />
      <stop
         offset="1"
         stop-color="#5AE5EA"
         id="stop1077" />
    </linearGradient>
    <linearGradient
       id="g"
       x1="9.8950005"
       y1="0"
       x2="9.8950005"
       y2="19.790001"
       gradientUnits="userSpaceOnUse">
      <stop
         stop-color="#fff"
         id="stop1080" />
      <stop
         offset=".479"
         stop-opacity=".5"
         id="stop1082" />
      <stop
         offset=".938"
         stop-color="#fff"
         id="stop1084" />
    </linearGradient>
    <linearGradient
       id="h"
       x1="9.8950005"
       y1="0"
       x2="9.8950005"
       y2="19.790001"
       gradientUnits="userSpaceOnUse">
      <stop
         stop-color="#fff"
         id="stop1087" />
      <stop
         offset=".479"
         stop-opacity=".5"
         id="stop1089" />
      <stop
         offset=".938"
         stop-color="#fff"
         id="stop1091" />
    </linearGradient>
    <linearGradient
       id="l"
       x1="307.59698"
       y1="64.932999"
       x2="305.70901"
       y2="172.043"
       gradientUnits="userSpaceOnUse">
      <stop
         stop-color="#fff"
         id="stop1094" />
      <stop
         offset="1"
         stop-color="#fff"
         stop-opacity="0"
         id="stop1096" />
    </linearGradient>
    <filter
       id="a"
       x="0"
       y="0.041000001"
       width="466.31799"
       height="303.04099"
       filterUnits="userSpaceOnUse"
       color-interpolation-filters="sRGB">
      <feFlood
         flood-opacity="0"
         result="BackgroundImageFix"
         id="feFlood1099" />
      <feColorMatrix
         in="SourceAlpha"
         values="0 0 0 0 0 0 0 0 0 0 0 0 0 0 0 0 0 0 127 0"
         result="hardAlpha"
         id="feColorMatrix1101" />
      <feOffset
         dx="4"
         dy="22"
         id="feOffset1103" />
      <feGaussianBlur
         stdDeviation="20"
         id="feGaussianBlur1105" />
      <feComposite
         in2="hardAlpha"
         operator="out"
         id="feComposite1107" />
      <feColorMatrix
         values="0 0 0 0 0 0 0 0 0 0 0 0 0 0 0 0 0 0 0.25 0"
         id="feColorMatrix1109" />
      <feBlend
         in2="BackgroundImageFix"
         result="effect1_dropShadow_310_727"
         id="feBlend1111"
         mode="normal" />
      <feBlend
         in="SourceGraphic"
         in2="effect1_dropShadow_310_727"
         result="shape"
         id="feBlend1113"
         mode="normal" />
    </filter>
    <filter
       id="b"
       x="29"
       y="11.041"
       width="400.31799"
       height="237.041"
       filterUnits="userSpaceOnUse"
       color-interpolation-filters="sRGB">
      <feFlood
         flood-opacity="0"
         result="BackgroundImageFix"
         id="feFlood1116" />
      <feGaussianBlur
         in="BackgroundImageFix"
         stdDeviation="3.5"
         id="feGaussianBlur1118" />
      <feComposite
         in2="SourceAlpha"
         operator="in"
         result="effect1_backgroundBlur_310_727"
         id="feComposite1120" />
      <feBlend
         in="SourceGraphic"
         in2="effect1_backgroundBlur_310_727"
         result="shape"
         id="feBlend1122"
         mode="normal" />
    </filter>
    <filter
       id="e"
       x="29"
       y="97.379997"
       width="250.776"
       height="150.703"
       filterUnits="userSpaceOnUse"
       color-interpolation-filters="sRGB">
      <feFlood
         flood-opacity="0"
         result="BackgroundImageFix"
         id="feFlood1125" />
      <feGaussianBlur
         in="BackgroundImageFix"
         stdDeviation="3.5"
         id="feGaussianBlur1127" />
      <feComposite
         in2="SourceAlpha"
         operator="in"
         result="effect1_backgroundBlur_310_727"
         id="feComposite1129" />
      <feBlend
         in="SourceGraphic"
         in2="effect1_backgroundBlur_310_727"
         result="shape"
         id="feBlend1131"
         mode="normal" />
    </filter>
    <filter
       id="i"
       x="152.744"
       y="33.530998"
       width="128.717"
       height="74.762001"
       filterUnits="userSpaceOnUse"
       color-interpolation-filters="sRGB">
      <feFlood
         flood-opacity="0"
         result="BackgroundImageFix"
         id="feFlood1134" />
      <feColorMatrix
         in="SourceAlpha"
         values="0 0 0 0 0 0 0 0 0 0 0 0 0 0 0 0 0 0 127 0"
         result="hardAlpha"
         id="feColorMatrix1136" />
      <feOffset
         dy=".529"
         id="feOffset1138" />
      <feGaussianBlur
         stdDeviation=".264"
         id="feGaussianBlur1140" />
      <feComposite
         in2="hardAlpha"
         operator="out"
         id="feComposite1142" />
      <feColorMatrix
         values="0 0 0 0 0 0 0 0 0 0 0 0 0 0 0 0 0 0 0.2 0"
         id="feColorMatrix1144" />
      <feBlend
         in2="BackgroundImageFix"
         result="effect1_dropShadow_310_727"
         id="feBlend1146"
         mode="normal" />
      <feBlend
         in="SourceGraphic"
         in2="effect1_dropShadow_310_727"
         result="shape"
         id="feBlend1148"
         mode="normal" />
    </filter>
    <filter
       id="j"
       x="66.399002"
       y="145.037"
       width="56.050999"
       height="33.206001"
       filterUnits="userSpaceOnUse"
       color-interpolation-filters="sRGB">
      <feFlood
         flood-opacity="0"
         result="BackgroundImageFix"
         id="feFlood1151" />
      <feColorMatrix
         in="SourceAlpha"
         values="0 0 0 0 0 0 0 0 0 0 0 0 0 0 0 0 0 0 127 0"
         result="hardAlpha"
         id="feColorMatrix1153" />
      <feOffset
         dy="1"
         id="feOffset1155" />
      <feGaussianBlur
         stdDeviation=".5"
         id="feGaussianBlur1157" />
      <feComposite
         in2="hardAlpha"
         operator="out"
         id="feComposite1159" />
      <feColorMatrix
         values="0 0 0 0 0 0 0 0 0 0 0 0 0 0 0 0 0 0 0.15 0"
         id="feColorMatrix1161" />
      <feBlend
         in2="BackgroundImageFix"
         result="effect1_dropShadow_310_727"
         id="feBlend1163"
         mode="normal" />
      <feBlend
         in="SourceGraphic"
         in2="effect1_dropShadow_310_727"
         result="shape"
         id="feBlend1165"
         mode="normal" />
    </filter>
    <filter
       id="k"
       x="54.118999"
       y="151.397"
       width="31.924999"
       height="19.277"
       filterUnits="userSpaceOnUse"
       color-interpolation-filters="sRGB">
      <feFlood
         flood-opacity="0"
         result="BackgroundImageFix"
         id="feFlood1168" />
      <feColorMatrix
         in="SourceAlpha"
         values="0 0 0 0 0 0 0 0 0 0 0 0 0 0 0 0 0 0 127 0"
         result="hardAlpha"
         id="feColorMatrix1170" />
      <feOffset
         dy="1"
         id="feOffset1172" />
      <feGaussianBlur
         stdDeviation=".5"
         id="feGaussianBlur1174" />
      <feComposite
         in2="hardAlpha"
         operator="out"
         id="feComposite1176" />
      <feColorMatrix
         values="0 0 0 0 0 0 0 0 0 0 0 0 0 0 0 0 0 0 0.15 0"
         id="feColorMatrix1178" />
      <feBlend
         in2="BackgroundImageFix"
         result="effect1_dropShadow_310_727"
         id="feBlend1180"
         mode="normal" />
      <feBlend
         in="SourceGraphic"
         in2="effect1_dropShadow_310_727"
         result="shape"
         id="feBlend1182"
         mode="normal" />
    </filter>
  </defs>
</svg>
